<svg width="674" height="197" viewBox="0 0 674 197" fill="none" xmlns="http://www.w3.org/2000/svg">
<path d="M120.496 98.3915V52.6846H146.332V194.088C141.268 195.315 140.677 195.09 137.767 191.083C135.363 187.762 132.968 184.431 130.324 180.769C129.137 181.721 128.09 182.568 127.033 183.409C117.706 190.847 107.473 196.277 95.2308 196.432C70.2209 196.798 49.1481 179.903 43.7785 155.444C38.1434 129.733 49.9646 104.357 72.6302 93.7883C82.9287 88.9797 93.668 87.5271 104.863 90.1568C110.658 91.5192 115.707 94.2241 120.496 98.3915ZM94.3742 115.307C86.0593 115.307 79.197 118.387 74.2231 125.094C66.4491 135.568 67.2656 152.028 75.9011 161.775C83.0239 169.825 93.8633 172.62 103.22 168.663C111.034 165.357 116.163 159.441 118.933 151.527C124.904 134.441 111.901 115.327 94.3742 115.307Z" fill="white"/>
<path d="M206.841 169.875C220.495 171.798 230.048 167.115 236.574 155.644C241.323 160.348 245.981 164.946 250.599 169.574C255.969 174.929 256.079 175.059 250.66 180.424C235.267 195.641 216.899 200.49 196.412 193.707C175.925 186.925 164.405 171.843 161.495 150.63C159.135 133.389 163.133 117.641 175.299 104.743C197.489 81.2207 238.227 84.4715 255.658 111.199L206.841 169.875ZM190.061 156.14L219.964 116.569C213.247 113.268 201.842 115.918 195.511 122.044C187.381 129.898 184.856 144.534 190.061 156.14V156.14Z" fill="white"/>
<path d="M294.739 194.444H268.982V93.0971C272.669 92.3457 275.745 92.531 277.999 96.1024C279.501 98.4216 281.62 100.32 283.599 102.559C289.627 97.3173 296.852 93.6379 304.636 91.8448C330.473 85.9142 357.692 104.538 359.349 130.86C360.672 151.832 359.615 172.935 359.615 194.269H333.874V190.492C333.874 172.459 333.934 154.427 333.834 136.395C333.857 132.409 332.643 128.513 330.357 125.247C328.072 121.981 324.829 119.506 321.076 118.162C317.437 116.857 313.495 116.648 309.738 117.559C305.982 118.471 302.574 120.464 299.938 123.291C296.126 127.384 294.689 132.337 294.704 137.847C294.744 155.349 294.704 172.845 294.704 190.341L294.739 194.444Z" fill="white"/>
<path d="M382.456 52.6643H408.412V92.8213H447.623V118.678H408.733C408.618 119.93 408.473 120.761 408.473 121.593C408.473 130.454 408.407 139.315 408.473 148.176C408.573 160.488 416.858 168.662 429.135 168.677C435.195 168.677 441.256 168.677 447.618 168.677V194.559C433.507 194.058 419.157 196.713 406.078 188.904C391.382 180.143 383.187 167.43 382.586 150.269C382.256 141.098 382.506 131.901 382.496 122.72C382.496 121.553 382.496 120.386 382.496 118.878H370.014V92.9065H382.456V52.6643Z" fill="white"/>
<path d="M488.426 194.399H462.71V93.0217H488.426V194.399Z" fill="white"/>
<path d="M26.0969 194.399H0.380737V77.1384H26.0969V194.399Z" fill="white"/>
<path d="M475.788 46.9592C478.085 46.9427 480.362 47.3865 482.484 48.2644C484.607 49.1423 486.532 50.4365 488.146 52.0707C489.76 53.7048 491.03 55.6457 491.882 57.7789C492.734 59.9121 493.149 62.1942 493.104 64.4906C493.009 73.9676 485.23 81.4711 475.523 81.436C470.937 81.4481 466.532 79.6439 463.272 76.4178C460.012 73.1917 458.162 68.8063 458.127 64.2201C458.112 54.5979 465.991 46.9091 475.788 46.9592Z" fill="white"/>
<path d="M38.3688 0C41.1288 7.89917 42.0755 15.3375 41.2139 22.9862C39.3305 39.4007 30.5548 50.8061 15.8134 57.9139C11.0799 60.198 6.42152 62.6373 1.28731 65.222C5.76033 49.7542 14.9969 37.908 25.6209 26.9233C14.6613 35.8393 5.9106 46.4884 0 59.4166C0.666195 43.6182 5.4648 29.8636 18.6084 19.9608C25.9916 14.3958 33.5251 8.921 38.3688 0Z" fill="#A8C8BC"/>
<path d="M517.779 23.0863L515.815 23.7775C510.701 25.5457 505.907 27.1987 501.174 28.9668C484.554 35.188 469.026 33.51 454.751 22.6805C448.104 17.6315 442.999 11.2951 438.877 3.20562C449.501 6.10081 459.439 4.3076 469.337 2.70472C486.868 -0.160416 501.239 6.34626 514.087 17.6064C513.245 17.3393 512.394 17.0805 511.532 16.8301C508.908 16.0587 506.184 15.339 503.363 14.6712L502.045 14.3957C491.332 12.3132 480.351 11.9833 469.532 13.4189C483.352 13.3488 496.916 14.4808 510 19.56C512.658 20.5858 515.255 21.7632 517.779 23.0863V23.0863Z" fill="white"/>
<path d="M673.934 75.285C667.192 79.3223 660.655 81.8268 653.557 82.6983C636.757 84.762 623.141 79.1069 612.709 65.7329C611.076 63.6291 609.203 61.6956 607.7 59.5468C605.065 55.8852 602.135 52.6294 597.181 50.761C596.68 50.5757 596.179 50.4054 595.678 50.2601C597.763 49.3887 599.9 48.6443 602.075 48.0311C607.479 46.5596 613.064 45.8597 618.665 45.9524C626.128 45.9875 633.581 46.7639 641.045 47.0293C630.636 44.3045 620.157 43.1574 609.488 44.1742C608.987 44.2243 608.486 44.2744 607.955 44.3345C605.21 44.7319 602.557 45.171 599.996 45.6519C602.791 42.6916 610.234 39.1853 615.759 37.5373C625.777 34.5319 635.6 35.0779 645.448 38.3538C653.332 40.9785 661.356 43.0272 670.593 42.1356C664.512 50.8211 657.339 56.7368 648.268 60.2931C639.196 63.8495 629.86 64.6259 619.461 61.5905C626.974 67.0402 639.527 65.5025 641.806 65.0116C644.887 64.0649 647.817 63.0681 650.782 62.3168C651.244 62.2267 651.719 62.2317 652.179 62.3316C652.639 62.4315 653.074 62.6242 653.457 62.8978C659.418 67.9669 665.569 72.8056 673.934 75.285Z" fill="#A8C8BC"/>
<path d="M571.059 196.352H523.439C531.598 174.212 537.845 164.956 545.719 133.349C556.974 88.1831 554.334 53.3005 515.82 23.7776L517.784 23.0863C515.259 21.7545 512.66 20.5688 510 19.535C496.916 14.4559 483.352 13.3238 469.532 13.394C480.351 11.9584 491.332 12.2882 502.045 14.3707L503.363 14.6462C506.184 15.3141 508.908 16.0337 511.532 16.8051C512.394 17.0555 513.245 17.3143 514.087 17.5815C603.828 45.8422 577.676 137.487 571.059 196.352Z" fill="#A8C8BC"/>
<path d="M641.015 47.0193C633.551 46.7538 626.098 45.9774 618.635 45.9424C613.034 45.8497 607.449 46.5495 602.045 48.0211C599.87 48.6343 597.733 49.3786 595.648 50.2501C596.149 50.4054 596.65 50.5757 597.151 50.751C546.886 79.8031 549.245 107.788 561.237 140.001C571.395 167.3 573.864 176.567 581.157 196.342H538.581C532.6 143.142 502.161 63.9847 599.931 45.6368C602.496 45.156 605.149 44.7168 607.89 44.3195C608.391 44.2593 608.892 44.2093 609.423 44.1592C620.112 43.1474 630.631 44.2944 641.015 47.0193Z" fill="white"/>
</svg>
