<svg width="128" height="41" viewBox="0 0 128 41" fill="none" xmlns="http://www.w3.org/2000/svg">
<path d="M22.8858 20.4665V11.2302H27.7929V39.8044C26.831 40.0524 26.7188 40.0068 26.1661 39.1971C25.7094 38.526 25.2547 37.8529 24.7523 37.113C24.5269 37.3053 24.328 37.4763 24.1273 37.6464C22.3559 39.1495 20.4123 40.2467 18.0871 40.2781C13.337 40.352 9.33468 36.9378 8.31483 31.9953C7.24456 26.7997 9.48976 21.672 13.7946 19.5363C15.7506 18.5646 17.7903 18.271 19.9166 18.8024C21.0173 19.0777 21.9763 19.6243 22.8858 20.4665ZM17.9245 23.8846C16.3452 23.8846 15.0419 24.5071 14.0972 25.8625C12.6207 27.9789 12.7757 31.305 14.4159 33.2747C15.7687 34.9013 17.8274 35.4661 19.6046 34.6665C21.0887 33.9984 22.0629 32.803 22.589 31.2038C23.723 27.7512 21.2533 23.8887 17.9245 23.8846Z" fill="white"/>
<path d="M39.2852 34.9111C41.8786 35.2997 43.6928 34.3534 44.9325 32.0354C45.8343 32.9859 46.7191 33.9151 47.5962 34.8503C48.6161 35.9324 48.637 35.9587 47.6077 37.0427C44.6842 40.1178 41.1955 41.0976 37.3045 39.7271C33.4135 38.3566 31.2253 35.3089 30.6726 31.0222C30.2245 27.5383 30.9837 24.3559 33.2945 21.7496C37.509 16.9963 45.2464 17.6532 48.5571 23.0543L39.2852 34.9111ZM36.0982 32.1356L41.7778 24.1393C40.502 23.4723 38.3358 24.0077 37.1333 25.2457C35.5892 26.8328 35.1097 29.7904 36.0982 32.1356V32.1356Z" fill="white"/>
<path d="M55.9796 39.8761H51.0877V19.3965C51.7879 19.2446 52.3721 19.2821 52.8002 20.0038C53.0856 20.4724 53.488 20.8561 53.8638 21.3085C55.0088 20.2493 56.3809 19.5058 57.8595 19.1434C62.7666 17.945 67.9362 21.7083 68.2511 27.0274C68.5023 31.2654 68.3016 35.5298 68.3016 39.8407H63.4125V39.0775C63.4125 35.4336 63.424 31.7897 63.4049 28.1458C63.4094 27.3403 63.1787 26.5532 62.7446 25.8933C62.3106 25.2333 61.6946 24.733 60.9818 24.4615C60.2907 24.1978 59.542 24.1555 58.8285 24.3397C58.115 24.5239 57.4678 24.9266 56.9671 25.498C56.2431 26.3249 55.9701 27.326 55.9729 28.4394C55.9806 31.976 55.9729 35.5116 55.9729 39.0471L55.9796 39.8761Z" fill="white"/>
<path d="M72.6397 11.2261H77.5696V19.3408H85.0168V24.5657H77.6305C77.6086 24.8188 77.581 24.9868 77.581 25.1548C77.581 26.9454 77.5687 28.736 77.581 30.5265C77.6001 33.0145 79.1736 34.6664 81.5054 34.6694C82.6565 34.6694 83.8077 34.6694 85.0159 34.6694V39.8994C82.3359 39.7982 79.6103 40.3347 77.1263 38.7566C74.335 36.9863 72.7786 34.4174 72.6644 30.9496C72.6017 29.0963 72.6492 27.2379 72.6473 25.3826C72.6473 25.1467 72.6473 24.9109 72.6473 24.6062H70.2766V19.358H72.6397V11.2261Z" fill="white"/>
<path d="M92.7666 39.8673H87.8824V19.3816H92.7666V39.8673Z" fill="white"/>
<path d="M4.95658 39.8673H0.0723267V16.1719H4.95658V39.8673Z" fill="white"/>
<path d="M90.3663 10.0736C90.8026 10.0702 91.235 10.1599 91.6381 10.3373C92.0412 10.5147 92.4069 10.7763 92.7134 11.1065C93.02 11.4367 93.2612 11.8289 93.423 12.26C93.5847 12.691 93.6637 13.1522 93.6552 13.6162C93.6371 15.5313 92.1596 17.0476 90.3159 17.0405C89.4448 17.0429 88.6083 16.6783 87.9891 16.0264C87.37 15.3745 87.0186 14.4883 87.0118 13.5616C87.009 11.6172 88.5055 10.0635 90.3663 10.0736Z" fill="white"/>
<path d="M7.28738 0.583984C7.81157 2.18021 7.99138 3.68331 7.82775 5.22893C7.47004 8.54588 5.80326 10.8506 3.00343 12.2869C2.1044 12.7485 1.21964 13.2414 0.244498 13.7637C1.09406 10.6381 2.84836 8.24424 4.86618 6.02451C2.78462 7.82621 1.1226 9.97813 0 12.5906C0.12653 9.39814 1.03793 6.61867 3.53428 4.61756C4.93658 3.49302 6.36742 2.3867 7.28738 0.583984Z" fill="#255957"/>
<path d="M98.3415 5.24952L97.9686 5.38921C96.9973 5.74651 96.0868 6.08053 95.1878 6.43783C92.0312 7.69498 89.082 7.35589 86.3706 5.16754C85.1082 4.14725 84.1388 2.86683 83.3558 1.23214C85.3736 1.81718 87.2611 1.45482 89.141 1.13092C92.4707 0.551945 95.2002 1.86678 97.6404 4.14219C97.4806 4.0882 97.3188 4.03591 97.1552 3.9853C96.6567 3.82942 96.1395 3.684 95.6035 3.54904L95.3533 3.49337C93.3185 3.07256 91.233 3.0059 89.1781 3.29599C91.8029 3.28182 94.3792 3.51058 96.8641 4.53694C97.369 4.74424 97.8623 4.98216 98.3415 5.24952V5.24952Z" fill="white"/>
<path d="M128 15.7972C126.719 16.613 125.478 17.1191 124.13 17.2952C120.939 17.7123 118.353 16.5695 116.372 13.8669C116.061 13.4418 115.706 13.0511 115.42 12.6169C114.92 11.877 114.363 11.2191 113.422 10.8415C113.327 10.8041 113.232 10.7696 113.137 10.7403C113.533 10.5642 113.939 10.4138 114.352 10.2899C115.378 9.9925 116.439 9.85108 117.503 9.86981C118.92 9.87689 120.336 10.0338 121.753 10.0874C119.776 9.53679 117.786 9.305 115.76 9.51048C115.665 9.5206 115.57 9.53072 115.469 9.54287C114.947 9.62317 114.443 9.7119 113.957 9.80907C114.488 9.21087 115.902 8.50234 116.951 8.16933C118.854 7.56201 120.719 7.67234 122.59 8.33431C124.087 8.8647 125.611 9.27869 127.365 9.09852C126.21 10.8537 124.848 12.0491 123.125 12.7677C121.402 13.4864 119.629 13.6433 117.654 13.0299C119.081 14.1311 121.465 13.8204 121.898 13.7212C122.483 13.5299 123.04 13.3285 123.603 13.1766C123.691 13.1584 123.781 13.1595 123.868 13.1796C123.956 13.1998 124.038 13.2388 124.111 13.294C125.243 14.3184 126.411 15.2962 128 15.7972Z" fill="#255957"/>
<path d="M108.461 40.2619H99.4165C100.966 35.788 102.153 33.9175 103.648 27.5306C105.786 18.4036 105.284 11.3547 97.9695 5.38889L98.3424 5.24921C97.863 4.98009 97.3693 4.74048 96.864 4.53157C94.3791 3.5052 91.8028 3.27645 89.178 3.29062C91.2329 3.00052 93.3185 3.06718 95.3533 3.488L95.6035 3.54367C96.1394 3.67863 96.6566 3.82404 97.1551 3.97992C97.3188 4.03053 97.4805 4.08283 97.6403 4.13681C114.685 9.84759 109.718 28.3666 108.461 40.2619Z" fill="#255957"/>
<path d="M121.748 10.0857C120.33 10.0321 118.915 9.87521 117.497 9.86812C116.433 9.84939 115.373 9.99081 114.346 10.2882C113.933 10.4121 113.527 10.5625 113.131 10.7386C113.226 10.77 113.322 10.8044 113.417 10.8398C103.87 16.7105 104.318 22.3656 106.595 28.875C108.525 34.3915 108.994 36.264 110.379 40.2602H102.292C101.157 29.5097 95.3752 13.514 113.945 9.80638C114.432 9.70921 114.936 9.62047 115.456 9.54017C115.552 9.52803 115.647 9.51791 115.747 9.50778C117.778 9.30332 119.776 9.53511 121.748 10.0857Z" fill="white"/>
</svg>
