<svg width="628" height="184" viewBox="0 0 628 184" fill="none" xmlns="http://www.w3.org/2000/svg">
<path d="M112.283 91.9533V49.3616H136.359V181.127C131.64 182.271 131.089 182.061 128.377 178.327C126.137 175.232 123.906 172.128 121.441 168.716C120.335 169.603 119.359 170.392 118.375 171.176C109.684 178.108 100.148 183.167 88.7401 183.312C65.4349 183.653 45.7984 167.909 40.7947 145.117C35.5437 121.158 46.5592 97.5124 67.68 87.6638C77.2766 83.1829 87.2839 81.8293 97.7159 84.2798C103.116 85.5493 107.821 88.0698 112.283 91.9533ZM87.942 107.716C80.1938 107.716 73.7992 110.586 69.1643 116.836C61.9202 126.596 62.681 141.934 70.7279 151.017C77.3652 158.518 87.4659 161.122 96.1849 157.435C103.466 154.354 108.246 148.842 110.827 141.467C116.391 125.546 104.274 107.734 87.942 107.716Z" fill="white"/>
<path d="M192.743 158.564C205.467 160.357 214.368 155.993 220.45 145.304C224.875 149.687 229.216 153.971 233.519 158.284C238.523 163.274 238.626 163.395 233.575 168.394C219.232 182.574 202.116 187.093 183.025 180.773C163.935 174.453 153.199 160.399 150.488 140.632C148.289 124.566 152.014 109.891 163.351 97.8718C184.029 75.9528 221.99 78.9821 238.233 103.888L192.743 158.564ZM177.107 145.766L204.972 108.892C198.713 105.816 188.085 108.285 182.185 113.994C174.61 121.312 172.257 134.951 177.107 145.766Z" fill="white"/>
<path d="M274.65 181.459H250.649V87.0196C254.085 86.3194 256.95 86.4921 259.051 89.8201C260.451 91.9812 262.426 93.7502 264.269 95.8366C269.887 90.9521 276.619 87.5236 283.873 85.8527C307.948 80.3263 333.312 97.6803 334.857 122.208C336.089 141.752 335.104 161.416 335.104 181.295H311.118V177.776C311.118 160.973 311.174 144.169 311.08 127.366C311.102 123.652 309.971 120.022 307.841 116.979C305.711 113.935 302.689 111.628 299.192 110.376C295.801 109.16 292.128 108.965 288.627 109.815C285.127 110.664 281.952 112.521 279.495 115.156C275.943 118.969 274.603 123.585 274.617 128.72C274.655 145.028 274.617 161.332 274.617 177.636L274.65 181.459Z" fill="white"/>
<path d="M356.389 49.3428H380.576V86.7628H417.114V110.857H380.875C380.767 112.024 380.632 112.799 380.632 113.573C380.632 121.83 380.571 130.087 380.632 138.344C380.725 149.817 388.446 157.435 399.886 157.449C405.534 157.449 411.181 157.449 417.109 157.449V181.566C403.961 181.099 390.588 183.573 378.401 176.296C364.706 168.133 357.07 156.286 356.51 140.295C356.202 131.749 356.435 123.179 356.426 114.624C356.426 113.536 356.426 112.449 356.426 111.044H344.794V86.8421H356.389V49.3428Z" fill="white"/>
<path d="M455.136 181.417H431.173V86.9495H455.136V181.417Z" fill="white"/>
<path d="M24.3181 181.417H0.354706V72.1487H24.3181V181.417Z" fill="white"/>
<path d="M443.36 44.0264C445.5 44.011 447.622 44.4246 449.599 45.2427C451.577 46.0607 453.371 47.2668 454.875 48.7895C456.379 50.3123 457.563 52.1209 458.357 54.1087C459.15 56.0964 459.537 58.223 459.496 60.363C459.407 69.194 452.158 76.1861 443.112 76.1534C438.839 76.1646 434.734 74.4834 431.697 71.4772C428.659 68.471 426.935 64.3845 426.902 60.1109C426.888 51.1445 434.23 43.9797 443.36 44.0264Z" fill="white"/>
<path d="M35.7537 0.267822C38.3255 7.6286 39.2077 14.56 38.4049 21.6874C36.6499 36.983 28.4723 47.6111 14.7356 54.2344C10.3247 56.3628 5.98384 58.636 1.19957 61.0444C5.36772 46.6309 13.9747 35.5921 23.8747 25.3561C13.662 33.6644 5.50775 43.5877 0 55.6347C0.620789 40.9131 5.09233 28.096 17.3401 18.8681C24.2201 13.6825 31.2401 8.58079 35.7537 0.267822Z" fill="#A8C8BC"/>
<path d="M482.488 21.7809L480.658 22.425C475.893 24.0727 471.426 25.613 467.015 27.2607C451.528 33.0578 437.058 31.4942 423.756 21.4028C417.562 16.6979 412.806 10.7934 408.964 3.25527C418.864 5.95314 428.125 4.28214 437.348 2.78851C453.684 0.118657 467.076 6.18185 479.048 16.6746C478.264 16.4256 477.47 16.1845 476.668 15.9511C474.222 15.2323 471.684 14.5617 469.055 13.9394L467.827 13.6827C457.844 11.7421 447.612 11.4347 437.53 12.7725C450.408 12.7071 463.048 13.762 475.239 18.4949C477.716 19.4509 480.137 20.548 482.488 21.7809Z" fill="white"/>
<path d="M628 70.4217C621.717 74.1838 615.626 76.5176 609.012 77.3298C593.357 79.2528 580.669 73.9831 570.948 61.5207C569.427 59.5603 567.681 57.7586 566.281 55.7562C563.825 52.3442 561.095 49.3103 556.479 47.5693C556.012 47.3966 555.545 47.2379 555.078 47.1025C557.021 46.2904 559.012 45.5968 561.039 45.0254C566.075 43.6541 571.279 43.002 576.498 43.0884C583.453 43.121 590.398 43.8445 597.353 44.0919C587.653 41.5527 577.889 40.4839 567.947 41.4314C567.48 41.4781 567.013 41.5247 566.519 41.5807C563.961 41.951 561.489 42.3602 559.102 42.8083C561.706 40.0498 568.642 36.7825 573.791 35.2468C583.126 32.4463 592.279 32.9551 601.455 36.0077C608.802 38.4535 616.28 40.3625 624.887 39.5317C619.22 47.6253 612.536 53.1377 604.083 56.4517C595.63 59.7657 586.93 60.4891 577.24 57.6606C584.241 62.7389 595.938 61.306 598.062 60.8485C600.933 59.9664 603.663 59.0375 606.426 58.3374C606.857 58.2534 607.3 58.2581 607.729 58.3512C608.157 58.4443 608.562 58.6238 608.919 58.8788C614.473 63.6024 620.205 68.1113 628 70.4217Z" fill="#A8C8BC"/>
<path d="M532.137 183.237H487.762C495.366 162.606 501.186 153.981 508.524 124.528C519.012 82.4406 516.552 49.9355 480.663 22.4248L482.493 21.7807C480.14 20.5396 477.718 19.4347 475.239 18.4714C463.048 13.7384 450.408 12.6836 437.53 12.7489C447.612 11.4112 457.844 11.7185 467.827 13.6591L469.055 13.9158C471.684 14.5381 474.222 15.2087 476.668 15.9275C477.47 16.1609 478.264 16.4021 479.048 16.651C562.672 42.9855 538.303 128.384 532.137 183.237Z" fill="#A8C8BC"/>
<path d="M597.325 44.0824C590.37 43.835 583.425 43.1116 576.47 43.0789C571.251 42.9925 566.047 43.6447 561.011 45.0159C558.984 45.5873 556.994 46.2809 555.05 47.093C555.517 47.2377 555.984 47.3964 556.451 47.5598C509.612 74.6318 511.81 100.71 522.984 130.727C532.45 156.165 534.751 164.8 541.547 183.228H501.873C496.3 133.653 467.935 59.8915 559.041 42.7942C561.431 42.3461 563.903 41.9369 566.458 41.5666C566.925 41.5106 567.392 41.4639 567.886 41.4172C577.847 40.4744 587.649 41.5433 597.325 44.0824Z" fill="white"/>
</svg>
