<svg width="529" height="184" viewBox="0 0 529 184" fill="none" xmlns="http://www.w3.org/2000/svg">
<path d="M112.283 91.6857V49.094H136.359V180.86C131.64 182.003 131.089 181.793 128.377 178.059C126.137 174.965 123.906 171.861 121.441 168.449C120.335 169.336 119.359 170.124 118.375 170.909C109.684 177.84 100.148 182.9 88.7401 183.044C65.4349 183.385 45.7984 167.641 40.7947 144.849C35.5437 120.891 46.5592 97.2448 67.68 87.3962C77.2765 82.9153 87.2838 81.5617 97.7159 84.0122C103.116 85.2818 107.821 87.8023 112.283 91.6857ZM87.942 107.448C80.1938 107.448 73.7992 110.319 69.1643 116.569C61.9202 126.328 62.681 141.666 70.7279 150.749C77.3652 158.25 87.4659 160.855 96.1849 157.167C103.466 154.087 108.246 148.574 110.827 141.199C116.391 125.278 104.274 107.467 87.942 107.448Z" fill="#255957"/>
<path d="M192.743 158.297C205.467 160.089 214.368 155.725 220.45 145.036C224.875 149.419 229.216 153.704 233.519 158.017C238.523 163.006 238.626 163.128 233.575 168.127C219.232 182.307 202.116 186.825 183.025 180.505C163.935 174.185 153.199 160.131 150.488 140.364C148.289 124.298 152.014 109.623 163.351 97.6041C184.029 75.6851 221.99 78.7144 238.233 103.621L192.743 158.297ZM177.107 145.498L204.972 108.624C198.713 105.548 188.085 108.017 182.185 113.726C174.61 121.045 172.257 134.683 177.107 145.498Z" fill="#255957"/>
<path d="M274.65 181.191H250.649V86.7518C254.085 86.0516 256.95 86.2243 259.051 89.5523C260.451 91.7134 262.426 93.4824 264.269 95.5688C269.887 90.6843 276.619 87.2557 283.873 85.5849C307.948 80.0584 333.312 97.4125 334.857 121.941C336.089 141.484 335.104 161.148 335.104 181.028H311.118V177.508C311.118 160.705 311.174 143.902 311.08 127.098C311.102 123.384 309.971 119.754 307.841 116.711C305.711 113.667 302.689 111.36 299.192 110.108C295.801 108.893 292.128 108.697 288.627 109.547C285.127 110.396 281.952 112.253 279.495 114.888C275.943 118.701 274.603 123.318 274.617 128.452C274.655 144.76 274.617 161.064 274.617 177.368L274.65 181.191Z" fill="#255957"/>
<path d="M356.389 49.0752H380.576V86.4952H417.114V110.589H380.875C380.767 111.756 380.632 112.531 380.632 113.306C380.632 121.563 380.571 129.82 380.632 138.077C380.725 149.55 388.446 157.167 399.886 157.181C405.534 157.181 411.181 157.181 417.109 157.181V181.299C403.961 180.832 390.588 183.306 378.401 176.029C364.706 167.865 357.07 156.019 356.51 140.028C356.202 131.481 356.435 122.912 356.426 114.356C356.426 113.268 356.426 112.181 356.426 110.776H344.794V86.5746H356.389V49.0752Z" fill="#255957"/>
<path d="M455.136 181.149H431.173V86.6816H455.136V181.149Z" fill="#255957"/>
<path d="M24.3181 181.149H0.354706V71.8809H24.3181V181.149Z" fill="#255957"/>
<path d="M443.36 43.7587C445.5 43.7433 447.622 44.1569 449.599 44.975C451.577 45.793 453.371 46.9991 454.875 48.5218C456.379 50.0446 457.563 51.8532 458.357 53.841C459.15 55.8287 459.537 57.9553 459.496 60.0953C459.407 68.9263 452.158 75.9184 443.112 75.8857C438.839 75.8969 434.734 74.2157 431.697 71.2095C428.659 68.2033 426.935 64.1168 426.902 59.8432C426.888 50.8768 434.23 43.712 443.36 43.7587Z" fill="#255957"/>
<path d="M35.7537 0C38.3255 7.36078 39.2077 14.2921 38.4049 21.4195C36.6499 36.7152 28.4723 47.3433 14.7356 53.9666C10.3247 56.095 5.98384 58.3681 1.19957 60.7766C5.36772 46.3631 13.9747 35.3243 23.8747 25.0883C13.662 33.3966 5.50775 43.3198 0 55.3669C0.620789 40.6453 5.09233 27.8281 17.3401 18.6003C24.2201 13.4146 31.2401 8.31297 35.7537 0Z" fill="#A8C8BC"/>
<path d="M482.488 21.5132L480.658 22.1573C475.893 23.805 471.426 25.3453 467.015 26.993C451.528 32.7901 437.058 31.2264 423.756 21.1351C417.562 16.4302 412.806 10.5257 408.964 2.98757C418.864 5.68544 428.125 4.01444 437.348 2.52081C453.684 -0.149043 467.076 5.91415 479.048 16.4069C478.264 16.1579 477.47 15.9168 476.668 15.6834C474.222 14.9646 471.684 14.294 469.055 13.6717L467.827 13.415C457.844 11.4744 447.612 11.167 437.53 12.5048C450.408 12.4394 463.048 13.4943 475.239 18.2272C477.716 19.1832 480.137 20.2803 482.488 21.5132Z" fill="#255957"/>
<path d="M532.137 182.969H487.762C495.366 162.339 501.186 153.713 508.524 124.26C519.012 82.1729 516.552 49.6678 480.663 22.1571L482.493 21.513C480.14 20.2719 477.718 19.167 475.239 18.2037C463.048 13.4707 450.408 12.4159 437.53 12.4812C447.612 11.1435 457.844 11.4508 467.827 13.3914L469.055 13.6481C471.684 14.2704 474.222 14.941 476.668 15.6598C477.47 15.8932 478.264 16.1344 479.048 16.3833C562.672 42.7178 538.303 128.116 532.137 182.969Z" fill="#A8C8BC"/>
<path d="M597.325 43.8145C590.37 43.5671 583.425 42.8436 576.47 42.8109C571.251 42.7246 566.047 43.3767 561.011 44.748C558.984 45.3194 556.994 46.013 555.05 46.8251C555.517 46.9698 555.984 47.1285 556.451 47.2918C509.612 74.3638 511.81 100.442 522.984 130.459C532.45 155.897 534.751 164.532 541.547 182.96H501.873C496.3 133.385 467.935 59.6236 559.041 42.5262C561.431 42.0781 563.903 41.6689 566.458 41.2986C566.925 41.2426 567.392 41.196 567.886 41.1493C577.847 40.2064 587.649 41.2753 597.325 43.8145Z" fill="#255957"/>
</svg>
