<?xml version="1.0" encoding="UTF-8"?><svg id="a" xmlns="http://www.w3.org/2000/svg" viewBox="0 0 1369.07 710.39"><defs><style>.b{fill:#fcad95;}.c{fill:#b78274;}.d{fill:#a8c8bc;}.e{fill:#111;}</style></defs><path class="c" d="M785.23,50s-10.1,28.76,20.67,51.41,108.47-17.72,131.57,30.59-1.19,49.86,9.92,69,154.75-80.07,177-51.88c22.25,28.19-42.39,56.88-34.6,82.4s73.47,14.48,80.47,39.48c0,0-33.66,.21-16,28.57s15.23,43.61,5.56,45.67-33.35-20.11-36.84-30.26-24.49-19.73-32.52-29.51-11.52-27.06-29.63-16.35-33.34,23.87-36.22,43.23-9,42.85-21.81,31.58-12.15-43.8-24.9-60.9-13.27-31-32.31-34.78-44.82,1.23-73.91-19.64c-2.77,1.45-4.95,3.82-6.17,6.7,0,0-6.87-5.92-9.49-13.25,0,0-36.43,7.82-50-17.83s-26.41-16.91-50.16-25.71-26.55,3.58-36.89-9.25-17.59-15.79-23.46-3.95-13.74,2-18.37-4.93-20.21-10.29-37.81,2.11-20.22-14.38-19-18,5.24-9.45,.92-15.65-2.62-7.89,3.4-11,20.22-9,25.93-15.78,11.88-6.63,25.16-5.64,31.44,.49,41-10.58,1.26-11.85-3.39-12.31,.31-6.77,1.7-11.42,26.7,.43,35.19-17.2c0,0,18.12,9.92,34.99,5.08Z"/><path class="b" d="M680.17,202.67s-35.81,15.92-16.67,46.52,69.69,4.32,65.87,45.29-51.67,42.95-43.64,66.91,64.82,21.71,92,3.11,29,8.45,23.16,38.34-52.48,38.91-56.49,80.07,50.68,61.57,37.22,93.52-32,33.23-44.32,39-27.63,4.37-32.11-21.29-8.95-45.67-14.2-59.49-7.09-33.12-7.09-33.12c0,0,8.46-26.8,4.1-46.53s-18.52-26.81-16.82-44.56,6.33-48.9-28.71-43.55-61,10.94-80.72-17.19-17.55-36.37-13.23-65.7,9.43-38.53,13.12-49.48,19.7-33.24,36.9-39.45c0,0,18.54-5.17,29.05-9.88s30.77-10.72,42.6-2.92c6.88,4.4,10.73,12.27,9.98,20.4Z"/><path class="d" d="M149.21,37.89s-32.69,14.9-9.08,33.21,62.3,24.06,33.08,67.43c-29.22,43.37-29.22,67.76,0,93.16,0,0-19.2,11-17.28,29.9s20.71,24.41,27.76,22.87c0,0-1.4,16.65,21.23,14.37,0,0,20.17-3.64,17.17,18.77s5.14,44.74,59.42,21.43c0,0-14.68,21.37,11.21,43.23s56.41,15,48.91,52.25-23.89,31.95-5,53.95,48.53,32.5,22.19,67.84-56.38,101.5-30,143.6c0,0-35.94-12.4-30.94-101.87s-20.88-87.59-47.47-107.89-23.73-60.77-12.17-98.64l3.19-22.6s-16.78,.67-24.75-17.8c0,0-8.64-5.49-11.57-18.32s-41.67-22.13-64.2-29.46-25.75-17.19-25.84-30.59-9.36-37.92-18.93-51.73-32.14-31.86-21.6-67.53,28.7-32.85,25.93-57.37c0,0-2.78-18.61-41.68-11.85s-35,3.37-35,3.37c0,0-13.27-23.33-1.7-38-.03-.02,43.38-31.51,127.12-11.73Z"/><path class="e" d="M8.62,83l.9,.9c3.28,4.46,8.11,5.89,13.71,6.16,15.38,.74,30.11-3.09,45.1-5.1,24-3.22,31.8,5.5,23.67,26.55-4,10.34-11.33,18.93-17.72,28-10.07,14.28-13.28,29.37-7.28,45.78,5.61,15.59,13.68,30.18,23.92,43.2,10.64,13.41,17.16,27.87,18.17,44.84,1.33,22.14,9.78,30.51,33,36.42,8.7,2.21,17.54,4,26.2,6.33,18.5,5,34.1,13,40.33,31.42,1.85,5.46,6.7,6.68,13.44,4.45-4.45-2.14-9.47-3.48-9.78-9.11-.37-6.43-4.16-11.52-8.32-16.4-7.53-8.84-17.7-14.09-28.93-18-12.33-4.28-25.23-6.91-37.53-11.33-9.16-3.28-13.62-9.31-15.15-17.68-.65-3-.99-6.07-1-9.14,.53-16.83-6.32-31.23-16.84-44.59-9.3-11.86-17.51-24.35-23.51-37.98-6.47-14.69-7-29,2.38-43,3-4.45,5.82-9,8.84-13.43,5.25-7.69,9.64-15.66,11.45-24.7,3.52-17.64-5.74-28-25.34-28-4.54-.09-9.08,.28-13.54,1.11-10.72,2.2-21.45,4.6-32.31,6.24-7.38,1.12-15.27,2.91-21.85-2.66l-1.3-1c-.12-.51-.24-1-.35-1.54l-.4,.27v-.37l.46,.12c-1.61,.55-1.04,1.39-.42,2.24ZM1192.85,460.26c1.55,1.5,3.56,1.84,5.68,1.93,8.62,3.58,17.35,6.67,27.2,5-11.68-2.95-21.66-9.24-32.8-13.15-2.55-1.25-5.41-1.72-8.22-1.35-6.39-1.61-13.66,.22-20.86-4.51,27.29,.11,52.24,6.73,79.1,9.07-3.42-3-6.38-3.53-9.11-4.37-14.19-4.37-28.88-6.95-43.44-9.89-10.67-2.02-21.61-2.27-32.36-.74-2.23,.29-6-.73-6.66,2.13-.71,3.06,1.22,5.91,3.87,8,2.74,2.16,5.92,3.69,9.32,4.49,5.34,1.33,10.84,1.96,16.35,1.86l2.53,.16,9.4,1.37Zm-351.1,15.91c-.55-4.45,.57-9.07-1.7-13.34,.08-4.83-.68-9.63-2.26-14.19,.46-2.89-.53-5.6-1.2-8.35-2.05-12.7,2.54-23.31,12.19-32.32,5.93-5.54,11.89-11.05,17.78-16.62,9.13-8.64,16.58-18.34,21.56-29.48,3.47-7.77,5.81-15.73,3-24.19-2.3-6.91-7.24-9.91-15.15-9.15-5.52,.53-10.7,2.28-16,3.63-9.9,2.54-12.81,1.25-14.38-7.81-1.64-9.43-6.73-16.56-14.23-22.86s-14.36-12.89-17.85-21.86c-4.42-11.24-10.44-21.85-15.74-32.74-1.09-2.24-2.22-4.51-4.56-6.3-1,2.4,.14,4.2,.72,6,2.91,9,5.93,17.89,8.93,26.82,4.32,12.86,9.86,24.9,21.62,34,7.06,5.25,11.57,13.24,12.41,22,1.14,10.5,10.34,15.29,21.47,12.14,3.2-.9,6.29-2.12,9.47-3.06,10.49-3.12,14.59,.25,12.3,10.12-.32,1.41-.77,2.8-1.22,4.18-3.92,11.8-10.8,22.4-20,30.77-8.39,7.85-17.26,15.31-24.6,24.06-9.12,10.89-9.92,23.08-6.93,35.88-.84,3.06,.59,5.82,1.36,8.67,1.13,6.51,2.26,13.02,3.4,19.53l.42,5.75c-.13,2.71-.25,5.42-.38,8.13-.72,2.94-1.45,5.88-2.17,8.82-3.19,7.09-8.59,12.84-13.7,18.77-6.55,7.61-11.91,15.94-12.58,25.7-.81,12-6.92,21.62-15,30.4-5.26,5.76-11.32,10.91-17.21,16.52,6.56-3.14,12.65-7.18,18.09-12,9.42-8.1,17.56-17.19,19.45-29.4,1.49-10.2,6.24-19.65,13.54-26.93,6.77-6.94,13.81-13.9,16.65-23.27,1-3.14,2.57-6.17,1.92-9.59,.23-2.88,.4-5.6,.58-8.43Zm-400.38,18.59c.93-2.3,1.85-4.6,2.77-6.9,2.29-7.91,7.31-15.36,4.48-24.29-2.42,8.22-7,15.43-11.29,22.75-2.6,3.32-3.7,7.17-4.62,11.08-1.69,19.67-7.23,38.11-20,54.47-4.04,5.04-7.41,10.58-10,16.5-10,24-25.17,45.17-41.49,65.78-8,10.07-13.64,21-15.95,33.33-2.17,11.51-.59,19.06,5.52,25.15-.31-4.63-2.51-8.74-1.85-13.41,2-14.51,8.46-27.15,18.07-38.71,12.63-15.2,26.07-29.93,35.32-47.24,6-11.32,10.13-23.64,18-34,13.6-18,20.47-37.54,19.83-59.32l.54-2.39c.22-.93,.45-1.87,.67-2.8Zm779.38-62.76c-2.26-1.61-2.62-3.88-2.55-6.27,.13-4.25-.44-8.55,1-12.74,.54-1.17,.03-2.56-1.14-3.11-.07-.03-.13-.06-.2-.08-1.57-.55-2.35,.61-2.85,1.86-1.11,2.7-2.64,5.32-3.29,8.11-1.78,7.6,.2,16.63,9,18.22,.82,.66,1.94,.8,2.89,.35,8.32,.13,13.83-3.48,14.65-10.25,.59-4.79,.68-9.8-2.25-14.09-2-2.92-.94-3.79,2-5,5.54-2.23,11-4.7,14.44-9.69,3-2.47,4-4.88-.25-7.14-8.83-5-26.74-.2-31.6,8.85,2.51-.9,4.62-1.79,6.81-2.42,4.1-1.17,7.85-3.58,12.37-3.21,1.59,.12,4.06-.58,4.51,1.43,.35,1.55-1.76,2.18-3.15,2.78-2.67,1.15-5.36,2.25-8.1,3.26-12.75,4.74-12.83,5-4.37,15.4,5.38,6.64,3.58,11.5-5.13,13.87l-2.79-.13Zm-3.98-315.17c.42,.86,.24,2.5,2.18,1.38l.27,1.49c-2.52,3.64-1.14,7.83-2,11.72-3.34,7.78-6.77,15.53-10,23.36-1.2,2.95-2.74,6-1.63,9.32-1,3.56,.08,6.69,2.34,9.58s4.76,5.68,6.82,8.7c1.38,2,3.21,4.27,.6,6.82-4-2.32-5.94-6.12-8.41-9.49-3-4.13-5.46-8.73-10.51-11.29-6.79-5.2-15.26-5.32-23-.32-6.61,3.31-8.23,8.24-5.22,15.54,2.58,6.24,7.46,11,12.27,15.73,8.6,8.56,16.12,17.64,19.31,29.28,4.67,17.1-.89,27.41-18.93,33.63-6.82,2.34-13.88,4.09-20.66,6.49-15.88,5.62-20.27,18.6-10.66,31.37,2.89,3.84,6.21,7.42,9.44,11,6.45,7.19,7.48,15.18,4.49,23.84-2.78,8.05-5.75,9-12.89,3.79-4.46-3.23-8.37-7.13-13.87-9.06-4.83-1.69-9.1-.43-12.64,2.38-3.36,2.65-3.22,6.32-1.82,10,1.4,3.99,3.47,7.71,6.14,11,9,10.51,15.4,21.78,12.88,35.74-.1,.55,.14,.71,.43,.56,4.21-12.64,1.06-23.9-6.92-34.37-2.79-3.65-5.01-7.69-6.61-12-1.06-2.85-2-5.89,1.15-7.88,2.88-1.84,6.21-1,8.83,.88,3.85,2.79,7.39,5.94,11.2,8.79,6.43,4.83,13.22,3.9,17.43-2.67,6.22-9.72,6.9-19.82,.75-29.79-3-4.85-6.55-9.42-10-14-8.46-11.22-6.22-18.31,7.74-23.39,7.48-2.73,15.26-4.79,22.65-7.7,15.9-6.26,23.7-18.23,21.74-33.59-1.66-13.05-7.55-24.53-17.23-34.3-5.15-5.19-11.11-9.75-15-15.88-3.54-5.48-1.77-9.3,5-10.9,5.5-1.3,9.7,.64,12.76,4.7,2.56,3.41,4.68,7.1,7.23,10.51,3,4.06,6.64,7.57,11.87,9.39,6.29,2.19,9.41,.6,10.13-5.55s-.49-11.83-5.35-16.54-6.86-10-4.42-16.36c2.34-5.15,4.67-10.31,7-15.48,1.7-5.91,4.55-11.6,4.08-17.92,1.57-2.19,.76-4.5,.3-6.73-1.88-9.13-8.65-14.87-16.62-19.75-4.92-2.69-9.7-5.57-13.57-9.48-4.91-5-4.42-8.86,1.73-12.47,7.6-4.45,16.22-6.31,25-7.69,18.59-2.91,33.47,1.8,43.38,17.24,2.64,4.11,5.86,7.9,8.82,11.84-.49-3.76-2.08-7-3.75-10.15-7.61-14.5-19.28-23.94-37.59-25-8.27-.51-16.57,.26-24.61,2.29-7.33,1.87-14.1,4.64-19.39,9.8-5,4.85-5.29,9.62-1.4,15.21,2.84,4.09,7,6.74,11.38,9.23,6.1,5.46,13.99,9.39,17.36,17.15Zm-344.48,111.6c-.24-.85-1.07-1.16-1.6-.64s.38,1,.83,1.39c11.78,9.06,25.18,15.79,39.48,19.82,9.72,2.78,20,1.79,30,2.06,11.6,.31,17.07,4.51,19.26,14.54,1.1,5.06,3,9.66,7.22,13.3,5.6,4.86,8.82,10.91,11,17.62,3.11,9.66,6.35,19.28,9.87,28.81,3.16,8.54,6.85,17,13.28,23.94,8.35,9.05,16.5,7.81,21.39-3.06,3.87-8.6,5.06-17.72,5.81-26.9,1.55-19,10.58-34.14,28.06-44.68,9.82-5.92,17.34-4.71,25,3.35,2.87,3.16,5.36,6.65,7.43,10.38,5.23,8.89,11.38,16.78,22.88,19.83,5,1.33,6.23,5,4.73,9.57-1.07,2.75-2.55,5.32-4.39,7.62-2.71,3.47-4.29,7.69-4.51,12.09-.54,20.26,11.26,36.34,21.09,53.15,.93-2.44,.24-4.58-.43-6.79-3.15-10.2-8.63-19.73-10.63-30.25-1.81-9.48-2.71-18.69,4.06-27.43,9.53-12.33,7.53-20-6.82-27.32-6.88-3.59-12.78-8.81-17.18-15.2-4.57-6.27-8.7-12.91-15.28-17.76-5.32-3.92-11.15-5.88-18.08-4.18-23.07,5.64-35.6,20.81-43.09,40.22-3.83,9.93-2.81,20.68-4.92,30.93-.78,3.82-.73,9.78-4.67,10.23-4.2,.48-6.41-5.09-8.23-8.77-4.45-9-7.24-18.58-10.65-27.95-4-10.92-7.28-22.19-16.25-30.85-4.09-3.76-6.96-8.66-8.25-14.06-2.06-9-8.51-13.82-18-15.8-8-1.67-16.1-1.21-24.19-1.16-12.83,.09-25-2.23-36.27-8-5.83-2.91-11.96-5.37-17.95-8.07v.02Zm411.71-138.12l.77-.11c.11-1.07,.11-2.16,0-3.23-2.45-11.23-1.62-13.37,8.93-19.26,8.91-5,18.17-9.43,27-14.49,10.39-5.95,10.4-13.32,.58-20.06-8.13-5.59-17.6-5.76-27.09-6-50.32-1.25-100.71,1.85-151-2.22-25.17-2-50.38-3.65-75.54-5.7-36.59-3-73.19-5.75-110-4.83-56.9,1.43-111.54,14-165.42,29.34-14.76,4.21-27.16,3.65-39.71-4-8.94-5.45-19.12-6.75-29.52-5.75-22.19,2.19-43.52,9.69-62.2,21.86-7.34,4.72-13.62,10.48-16.85,18.39-1.91,4.69-.25,7,5.07,7.18,4,.16,8.07,.11,11.86-1.85-2.27-2.22-5-1.37-7.49-1.53-4.41-.28-5.18-2-2.86-5.19,2.79-3.83,6.33-7.06,10.4-9.5,12.22-7.53,25.7-12.32,40-15.71,20-4.76,38.89-5.84,57,6,8.94,5.87,19.87,6.33,30.68,2.87,21.79-7,44.25-11.61,66.8-16,27-5.27,53.88-10.81,81.55-12.47,24.52-1.47,49-.37,73.4,.92,26.22,1.39,52.44,2.56,78.65,4,30.34,1.68,60.61,4.57,91,4.82,38.72,.32,77.32-3.22,116-3.25,6.57,0,13.09,.13,19.13,2.74,8.07,3.47,8.51,7.55,1.1,12-7.1,4.22-14.65,7.8-21.71,12.06-11.25,6.78-20.48,13.7-11,27.63,.21,.42,.37,.87,.47,1.34Zm-685.46,104.76c-8.38,1.86-15.95,6.33-21.63,12.76-16.5,18.53-24.13,40.64-30.61,63.16-5.62,19.55-7.66,39.39-2.37,59.32,7.84,29.53,32.27,51,71.71,44.82,10.65-1.66,21.26-4,32.2-3.78,14.68,.32,22.48,8,21.61,21.44-.09,3.07-.54,6.12-1.34,9.09-4,12.95-.87,24.77,7.38,35.34,10.28,13.19,12.27,27.07,7.71,42.54-4.66,15.83-6.53,32.13-.24,47.92,8,20,13.63,40.54,18.23,61.37,1.9,8.65,4.92,17.09,10.69,24.42,3.49,4.45,8.13,8.44,14.11,7.62,10-1.37,17.65-7.24,24.16-14.17,.1-.1-.3-.6-.59-1.13-3.88,1.35-6.55,4.27-9.83,6.35-12.65,8-21.3,5.74-27.14-7.4-3.21-7.2-4.67-14.86-6.06-22.47-3.53-19.18-7.26-38.27-15.53-56.35-4.61-10.1-4.45-20.72-2.11-31.33,1-4.59,2.07-9.17,3.3-13.71,4.44-16.47,3.58-31.93-8-46.33-8-10-10.9-21.46-7.5-33.86,.61-2.63,1.01-5.31,1.21-8,2.18-18.71-8.51-29.57-29.11-29.83-12.12-.16-23.9,2.27-35.81,3.65-12.44,1.44-24.4,.69-35.34-5.56-19.46-11.11-26.68-28.44-27.83-48.12-2-34.72,8.45-66.9,25.92-97.38,1.54-2.69,2.59-5.5,5.22-8,5.3-5.07,11.25-8.85,17.59-12.38Zm25.46-9.39c3.71,1.57,6.13-.14,8.67-.91,10-3.05,20.16-5.3,30.74-2.9,8.08,1.83,11.33,5.73,11.1,12.49-.33,9.71,3.44,14,14,15.81,6.25,1.08,12.59,.72,18.9,.61,19.35-.35,38.62,.5,57.67,3.76,8.12,1.39,16,4.09,24.4,4,8.85-.13,15.61-3.78,19.06-11.4s0-13.72-6.07-18.83c-5.18-4.43-11.51-7.31-18.25-8.31-10.49-1.59-20.79-3.52-29.8-9.28-2.83-1.8-6.4-2.76-9.74-3.78-4.32-1.3-8.48-1.38-11.95,2.11-2.67,2.69-5.23,2.57-7.56-.61s-4.84-6.12-7.25-9.19c-2.19-2.79-4.38-5.57-7.6-7.45-6.39-3.72-15.58-.63-17.14,5.73-.79,3.19,.73,8.46-2.89,9.05-4.21,.69-5.66-4.74-8.29-7.51-.9-.94-1.45-2.14-2.27-3.15-4.77-5.88-11.17-8.39-19.08-7.31-6.01,.75-11.68,3.17-16.37,7-8,6.64-15.91,13.46-23.81,20.24-1.18,1-2.52,2-2.93,4.31,6.29-2.82,11.11-6.47,16.15-9.79,6.23-4.11,12.17-8.64,18.68-12.35,8.68-4.93,14.34-3.6,20.2,3.84,2.54,3.22,4.82,6.64,7.63,9.63,3.83,4.08,9,5.19,14.52,3.62,5.11-1.45,6.5-5.36,6.68-9.8,.09-2.12-.41-4.89,2.45-5.49,3.15-.65,4.23,2.23,5.3,4.22,3.01,5.38,6.93,10.19,11.59,14.22,4.07,3.62,9.36,5.44,13.84,1.86,5.79-4.61,10.42-2.46,15.35,.39,8.39,4.94,17.85,7.78,27.57,8.28,6.47,.31,12.68,2.63,17.77,6.64,2.35,1.87,5.25,3.7,4.05,7.14-1.3,3.73-4.2,6-8.57,6.43-3.54,.29-7.1,.11-10.59-.54-26.59-4.74-53.3-8-80.49-5-2.75,.26-5.52,.23-8.27-.08-7.22-.72-9.9-3.4-10-10.07-.17-7.08-3.81-12-10.83-14.73-5.38-2.11-11-2.4-16.84-1.89-10.45,.95-19.45,5.48-29.73,8.99ZM0,62.12c7-.76,10.63-4.37,14.79-6.81,31.61-18.56,65.45-24.91,102.21-16.09,12.93,3.1,25.94,4.18,39.26,2.17,17.12-2.58,34.27-5,51.75-4.37,21.07,.8,42,4.19,63.18,2.85,14.53-.91,29-1.38,44.33,.62-13.74,16.3-35.55,21-52.12,32.73,2.88,.4,5.48,.69,8.14-.34,7.07-2.75,14.34-5.08,21.3-8,13.47-5.71,26.66-11.84,34.8-24.07,4.08-6.15,4.12-6.24-3.69-8.31-13.87-3.69-28.08-3.65-42.3-3-16.16,.68-32.35,.05-48.41-1.91-19.83-2.37-39.74-2.89-59.52,.59-21.88,3.86-43.7,5.66-65.63,.07-6.14-1.55-12.47-2.19-18.79-1.91C55.14,27.77,26.25,40.43,0,62.12ZM369.67,709.31c-7.09-3.09-13.15-3.47-19-4.66-18.9-3.82-33-13-40.58-29.78-8-17.79-8.32-36.49-8.34-55.27,0-24,3.2-47.9,1.55-71.9-1.12-16.39-6.3-31.21-21.11-41.84-5.57-4-11.44-7.67-17.14-11.53-25-16.93-34.75-39.81-30.89-67.63,2.43-17.48,7.43-34.64,8.21-52.36,.14-3.11,1.35-6.38-1.42-9.55-2.62,19.92-8.6,38.81-12.86,58-6.34,28.63,1.56,53.62,25.5,73.58,6.82,5.69,14.6,10.43,21.86,15.69,9.72,7,15,16.32,17,27.5,3.81,21.4,1.94,42.8,.68,64.22-1.22,20.91-2.1,41.8,4.15,62.27,6.13,20.06,18.17,35.5,41.05,41.78,10.2,2.84,20.91,3.34,31.34,1.48ZM252,244c2-6,2.07-11.83,2.14-17.49,.1-7.26,3.5-12.39,9.89-16.15,9.46-5.62,17.67-13.1,24.14-22,17.75-24.22,41.82-43.09,69.57-54.56,16.06-6.56,31.19-15.21,45-25.71,3.85-3,4.46-5.56,.69-8.83-2.86-2.48-5.49-5.19-8.35-7.67-13.27-11.51-27.82-21.24-45.28-26.89-9.23-3-17.79-2.4-25.55,3.56-5.49,4.21-9.62,9.52-14.34,14.36s-9.06,9.52-15.14,12.77c-4.89,2.62-9.21,2.56-13.06-1.7-1.93-2.14-4.18-4-6.84-6.6,3.53,13.56,13.92,17.38,25.85,10.14,9.13-5.54,16.43-12.88,23.56-20.39,7.49-7.88,13.28-9.25,23.53-4.68,15.38,6.85,28.68,16.4,40.74,27.45,2.8,2.57,3.09,4.11-.47,6.49-11.19,7.26-23.03,13.45-35.38,18.48-27.87,11.78-51,28.45-67.55,52.43-6.51,9.43-13.7,18.52-23.22,25.79-14.29,10.93-17.64,24.44-9.93,41.2Zm-45.63,30.42c9.52,1.84,9.69,2.32,4.09,9.62-3.05,4-6.71,7.6-8.74,12.18-3.26,7.38-2.61,8.16,5.84,7.37,8.79-.83,12.65,2.89,11.23,10.82-.57,3.2-1.35,6.38-1.73,9.59-1.62,13.9,4,27.43,22.86,29.63,10.06,1.18,19-1.27,27.11-5.64,20.47-11,38.69-8.11,55.78,5.84,.59,.47,1.22,.91,1.86,1.33,10.92,7.12,20.14,16.34,31.77,22.49,7.18,3.79,11.38,8.58,11.87,16.09,.55,8.45,5.69,14.19,12.92,19,11.54,7.64,25.27,10.81,38,16,9.56,3.9,18,8.9,22.69,18,1.14,2.21,2.26,4.64,4.77,6.5,.82-2.44-.15-4.07-.74-5.74-4.33-12.36-14-20-26.41-25.43-9.77-4.26-20.11-7.35-29.44-12.54-8.23-4.57-13.13-10.7-13.28-19.66-.14-7.93-4.27-13.7-11.6-17.63-7.24-3.94-14.1-8.53-20.49-13.73-11.27-9.06-22.93-17.58-36.85-23.2-11.95-4.81-23.65-4.84-35.38,.41-3.71,1.67-7.42,3.33-11.18,4.91-6.32,2.67-12.8,4.42-20,3.8-8-.69-12.54-4.12-14.37-11.26-1.44-5.63,.47-11.11,.58-16.67,.09-5.28,.43-10.5-3.55-14.92-3.81-4.24-9-5.22-15.48-4.87,2.72-4.91,5.16-9.18,7.45-13.52,1.51-2.87,3.84-6.07,.69-8.95s-6.51-1.03-10.27,.18Zm1092.55,208.68c-3.17,7.46-4.57,14.84-2.06,22.34,1.69,5,5.81,6.83,11.47,5.81,6.09-1.1,8.75-5.21,10.82-9.78,2-4.3,3.52-8.75,5.66-14.13,6.16,17.61,14.25,34.48,24.13,50.31,9,14.5,7.86,22.18-3.63,34.91-8.52,9.45-17.23,18.77-23.13,29.9-3.35,6.61-7.51,12.77-12.39,18.34-14.18,15.59-34.71,15.73-45.6-2.13-2.93-4.51-6.11-8.85-9.52-13-1.54-1.81-3.18-3.53-4.9-5.16,3.21,8.25,6.99,16.27,11.29,24,7.62,14.23,23.26,19.59,39.31,13.55,10.94-4.11,18.44-11.84,24.07-20.79,8.78-13.95,18.35-27.26,30.13-39.25,13.85-14.09,14.37-29.5,4.1-45.3-8.83-13.57-15.23-28-20.5-42.94-2.3-6.17-5.23-12.09-8.73-17.67-1.82-3-3.57-3.27-6.08-.44-4.24,4.86-7.3,10.63-8.95,16.87-1,3.65-2,7.32-3.24,10.91-.92,2.61-2.38,5.58-5.83,5.24-2.89-.29-3.25-3.44-3.71-5.65-1.1-5.27-1.83-10.61-2.71-15.94ZM480.3,4.13v1.51c14.7,.68,29.4,1.29,44.1,2.06,9.45,.49,18.89,1.09,28.15,3.09,4,.87,4.22,2.69,2,5.32-3.35,3.7-7.44,6.64-12,8.65-9.73,4.58-20.29,6.79-30.88,8.87-18.87,3.69-36.3,9.69-48.7,24.28-2.09,2.22-4.49,4.11-7.14,5.62-7.05,4.41-12.43,2.2-14-5.55-.94-4.53,.31-9,.55-13.45,.56-10.63-4.37-18-14.89-22.2-1.89-.75-4.93-1-4.92-3.2,0-2.41,3-3,5.15-3.87,1.27-.51,2.59-.88,3.94-1.11,7.37-1.34,14.75-2.63,22.13-3.93-2.88-.59-5.93,0-8.58-.69-8.73-2.47-18.08-1.29-25.92,3.28-9.53,5.35-9.51,8.4,0,13.48,1.19,.64,2.3,1.41,3.51,2,7.2,3.53,10.47,9,9.7,16.44-.46,4.48-1.25,9-1.19,13.45,.19,13.9,14.24,21.62,27.74,15.43,5.22-2.39,9.94-5.75,13.91-9.9,7.78-8.07,17.69-13.78,28.58-16.46,6.62-1.74,13.29-3.28,20-4.87,13.38-3.2,26.35-7.38,36.63-16.38,4.55-4,9.36-8.68,7.88-14.9-1.57-6.61-8.53-8-14.73-9.11-23.89-4.32-47.45-.63-71.02,2.14Zm793.7,479.71c-2.68-1.58-5.22-1-7.72-.89-10.61,.56-18.33,6.17-25.36,12.57-16,14.57-32.92,27.89-53.84,36.41-4.6,1.98-9.03,4.35-13.23,7.08-8,5-14.11,11.4-16.67,20.24-1.15,3.45-1.35,7.15-.57,10.7,3.22,12.34-.82,23.27-6.49,34.26-6.23,12.1-3,15.76,12.13,14.81,.4,0,.79-.06,1.18-.12,18.08-2.61,32.82-11.54,47.3-20.93,.15-.1,0-.63-.1-1.2-17.28,2.26-32,13-49.91,13-.2-.7-.34-.91-.28-1.05,.35-.82,.75-1.62,1.2-2.39,6.75-10.58,10.17-21.68,7.33-34.08-1.21-5.01-.43-10.29,2.17-14.73,4.31-7.42,11.69-11.52,19.56-15,19.48-8.44,36.86-21.07,50.9-37,8.61-9.85,16.33-20.86,32.4-21.68ZM717.17,79.39c-6.77,5.37-12.65,11.4-22.75,11.9-8.72,.43-17.54,.79-26-.67-10-1.73-16.91,1.4-22.56,8.27-5.03,6-11.35,10.78-18.48,14-7.55,3.57-15.18,7.33-20.63,14.06,4.18,1.75,8,3.16,11.14,5.69,4.07,3.28,3.86,5.76-.68,8.58-4.73,2.94-10,1.8-15,1.36-8.22-.71-14.41,2-18.28,8.47-4.49,7.46-4.78,15.18,.48,22.56,3.91,5.48,10.6,7.66,20.53,6.51l-8.63-3.35c-8.82-3.42-12.16-9.87-9.46-18.29,2.37-7.41,9.3-11,18.5-9.81,3.11,.49,6.26,.68,9.41,.57,5.5-.12,10.39-3.55,12.37-8.68,2-4.51,2.2-9.39-1.81-12.57-5.47-4.35-1.9-5.42,2-6.86,11.13-4.11,21.35-9.26,27.85-19.09,2.21-3.33,5.87-3.87,9.91-3.21,7.62,1.1,15.34,1.3,23,.59,14.18-1,27.35-4,34.67-17,5.61-10,5.44-10.42-6.81-11.07-.47-.1-.92-.24-1.36-.42,1.47-4.63,3.19-9.22,4.36-13.92,1.54-6.18-1.24-8.82-8-8.12-8.2,.84-13.19,4.89-15.36,12.89-1.53,5.98-3.53,11.82-6,17.48-3.06,6.71-5.35,7.86-12.66,6.65,5.56,4.11,8.6,4.06,12.57-.71,5.22-6.28,7.87-13.63,9.63-21.26,.92-4.75,4.57-8.5,9.3-9.54,3.33-.88,5.7,0,4.38,3.81-1.5,4.29-3.16,8.52-4.82,12.76-2.64,6.73-2.66,6.68,4.82,7.24,1.31,.05,2.8-.43,4.37,1.18ZM360.77,39.93c-7.31-1.38-14.87-.14-21.35,3.51-7.78,4.46-7.82,6.94,.48,10.64,16.86,7.53,34.25,7.05,51.73,1.84,3-.9,4-2.41,3.16-5.72-2.2-9-8.41-15.71-14.46-22.55-1.67-1.89-3.19-3.5-1.38-6.16,3.13-4.61,.84-8.17-3.18-11.21-3.56-2.71-7.65-4.66-12-5.72-12.77-3.13-25.77-3.12-38.69-1.19-4,.6-8.59,1.61-9.6,6.06-1.05,4.72,2.41,7.65,6.16,10.24,6.49,4.48,14,4.17,21.53,3.93,5.18-.16,11.17-1.76,12.17,7.1,2.75-7.73,1.13-11-5-12.09-4.42-.78-9-1-13.48-1.39-4.22-.36-8.06-1.27-11.06-6.07,14.78-.24,28.55-.27,41.67,5.06,2.63,1.07,2.22,2.86,1.47,4.95-1.63,4.55-.58,9.17,3.41,11.8,5.1,3.37,7.16,8.43,10.72,12.62,2.46,2.89,1.31,4.7-2.32,5.2-11.16,1.42-22.47,1.19-33.56-.66-1.65-.25-4-.44-4.31-2.29-.41-2.29,2.07-2.85,3.79-3.45,4.65-1.6,9.39-2.98,14.1-4.45Zm494.17,179.13c-.05,.56-.05,1.12,0,1.68,2.67,14.24,14,21,27.19,26,6.9,2.65,13.86,5.13,20,9.16,11.62,7.62,13.33,16.79,4.85,27.28-9.71,12-24.06,18.43-37.76,25.46-12.35,6.34-19,3.87-24.44-8.1-.58-1.13-1.11-2.3-1.57-3.49-3.44-10.2-9.76-18.82-17.56-26.59-6.4-6.31-12.39-13.02-17.91-20.11-.9-1.17-1.59-3.13-4.11-2.09,5.96,9.57,12.56,18.72,19.76,27.4,6.22,7.28,11.04,15.66,14.2,24.7,1.32,3.83,3.25,7.42,5.7,10.64,5.39,7.06,12,9.36,21.05,6.51,16.23-5.03,31.21-13.44,43.95-24.67,3.24-2.83,6.01-6.16,8.2-9.87,6.11-10.41,4.4-19.66-4.75-28-7.84-7.15-18-10.06-28-13.45-11.81-4-22.1-9.54-26.72-21.12-.2-.6-.32-1.4-2.08-1.34Zm-620.56,29.44c.11-.91,.11-1.82,0-2.73-4.63-17.41-24.55-29.05-43.78-25.55-18.77,3.41-30.14,14.88-37.78,29.86-8.33,16.36,.77,33.36,20,38.19,6.37,1.6,14.11-.71,18-5.36,.71-.85,1.72-1.73,.84-2.85s-2-.61-3.18-.15c-2.47,1-4.69,2.73-7.65,2.51-12.61-1-22.36-15.42-17.63-26.15,3.48-7.89,9.69-13.91,16.38-19.54,13.55-11.39,44-10.55,52.39,9.72,.21,1.17,1.22,2.03,2.41,2.05Zm1046.89,181.08c12.15-.49,12.07-.47,15.56,10.14,1.5,4.93,3.95,9.52,7.2,13.51,5.06,6,11.46,8.07,19.29,5.79,2.59-.79,5.07-1.9,7.39-3.29,2.81-1.64,4.75-2.52,6.39,1.35,1.43,3.37,4.37,6,7.58,8.15,7.24,4.89,15,4.54,20.94-.85,4.59-4.15,4.85-10.32-.77-16.58-10.24-11.43-21.19-22.34-34.51-30.91-9.09-5.85-19.19-6.28-29.28-2.72-2.75,1-3.67,1-5.48-1-2.61-2.87-6.33-4.79-10.47-3.64s-5.21,5.08-6.25,8.54c-.3,1-1.23,2.79,.92,3,1.27,.13,2.27-.87,2.44-2.43,.25-2.25,.6-5.59,3.59-5.16,2.78,.4,6.12,1.7,7.22,5.18,.73,2.34,.55,5,2.77,7.21,1.12-.79,2.21-1.5,3.23-2.3,8.24-6.47,14.88-7.44,24.29-2.54,15,7.83,24.71,21,36.63,31.88,1.64,1.38,1.9,3.8,.6,5.5-1.32,1.95-3.59,3.04-5.94,2.84-2.93-.12-5.69-1.4-7.67-3.56-3.11-2.92-5.28-6.7-6.24-10.86-.84-3.66-2.39-3.25-5-1.42-3.71,2.77-7.74,5.07-12,6.87-6.63,2.65-11,1.48-15.57-3.64-3.81-4.3-5.71-9.39-7.92-14.39-3.5-8.09-9.54-9.72-18.94-4.67Zm-40.52-291.67c.11,6.18,3.18,11.4,5.81,16.77,4.72,9.61,3.85,13.86-4.1,21.34-2.2,2.06-4.55,4-6.52,6.27-4.45,5.09-8.6,10.37-8.48,17.36,.1,6.36,3.67,9.6,10.74,9.47,5.63-.11,10.78-1.9,15.72-4.25,16.16-7.66,29.64-25.63,17.24-46.9-6.48-11.11-14.53-21-25.46-28.76-.87-.62-1.68-2.28-3.27-1,4.71,5.81,9.58,11.47,14,17.4,5.48,7.33,10,15.26,11.5,24.06,2.4,13.82-9,27.54-25.82,31.83-2.05,.52-4.24,1.56-6.11-.2-2.07-2-.58-4,.15-6,2.29-6.21,7.16-10.72,12.26-15,7.09-5.93,9-12.89,5.69-21.05-3.1-7.77-8.46-14.41-13.35-21.34Zm-12.91,158.59c-1,5-.1,7.29,4.4,12.86,5.17,6.4,5.24,9.31,.47,15.85-3.06,4.13-5.08,8.93-5.9,14-.8,5,1.81,7.35,7.06,5.72,3.16-1.24,6.76-.3,8.92,2.32,3.1,3.36,5.28,7.19,4.85,11.81-.13,1.51-1.17,1.71-2.47,1.08-8.37-4-17.83-4.29-26.73-6.46s-9.27-3.57-2.86-9.35c1.7-1.48,3.31-3.07,4.81-4.76,7.47-8.61,8.25-17.88,2.15-25.91-2.16-2.83-5.2-4.89-8-7.17-3.57-2.9-6.71-6.08-1.82-11-5.67,2-7,4.77-4.31,8.79,1.93,2.88,4.64,5.34,7.08,7.92,6.48,6.86,7.13,13.22,1.6,20.59-2.66,3.55-5.9,6.74-8.92,10.07-9.12,10-8,13.13,6,16.82,10.92,2.88,22.72,2.93,32.76,8.6,1.21,.76,2.8,.49,3.69-.64,3.71-4.34,6-9.18,3.49-14.56-2.94-6.29-6.35-12.84-14.74-14.14-7.57-1.16-8.4-2.16-4.18-8.37,.83-1.27,1.77-2.47,2.81-3.57,5.51-5.66,5.08-10.69-.68-18.09-3.19-4.08-8.99-6.36-9.48-12.41Zm-387.24,225.44c-4.23,5.71-4.3,11.22-5.41,16.57-1.38,6.69,3,13.6,6.49,14.45,6.64,1.61,10.34-2.69,13.7-6.58,6.76-7.88,12.95-16.24,18.52-25,6.12-9.54,10.42-19.73,11.83-30.82,.52-4,1-8.2-3.1-10.84-4.41-2.83-8.15,.43-12,2-.69,.34-1.33,.76-1.91,1.26-8.36,6.12-13.52,14.82-21,21.67-.11,.11,.14,.55,.41,1.45,10.85-4.17,17.55-13.51,28.56-19.21-4,23.6-17.52,41.19-32.63,59.07-3.06-8.09-2.25-15.65-3.46-24.02ZM232.15,258.74q12.14,1.89,18.92,10.8c.45,.6,.88,1.2,1.34,1.78,4,5,8.76,8.53,16.07,8.73,5.86,.17,11.82,.29,17.49,2.15,1.71,.56,3.78,1.15,3.78,2.93s-2.26,2.46-3.89,2.66c-11.69,1.45-22.85,1-31.38-8-7-7.42-10.43-8.24-20.82-4.94,1.51-.42,2.06,1.38,4.13,.69,4.64-1.56,7.86,.79,10.22,4.36,1.1,1.73,2.29,3.4,3.57,5,7.32,8.83,29.06,13.77,40.06,9.06,4.43-1.9,7.16-5,7.06-9.68s-3.54-6.62-7.58-8c-4.63-1.68-9.53-2.5-14.45-2.44-9.43,.32-16.83-2.65-22.33-9.82-1.98-2.29-4.29-4.28-6.86-5.89-4.66-3.29-9.37-2.3-15.33,.61Zm965.58,108.49c-14.6,9.57-28.62,19.82-38.83,33.38-6.73,8.94-3.24,19.42,6.75,24.57,6.26,3.26,13.15,5.13,20.2,5.5,9.59,.49,16.55-4.05,18.24-12.1,2.91-14,.65-27.92-.37-41.9-.49,.77-.8,1.64-.89,2.55-1.53,12-3,24-4.57,35.95-.94,7.22-4.22,9.69-12.1,9.43-4.64-.16-8.76-1.89-12.92-3.48-12.1-4.6-14.18-10.28-7.48-20.6,1.45-2.16,3.08-4.2,4.87-6.09,6.61-7.2,14.3-13.4,21.8-19.78,2.35-2.05,5.18-3.79,5.3-7.47v.04Zm-86.73,11.13c-1,3.66,.55,5.24,1.32,7,3.71,8.57,11.56,13.95,18.52,20,3.47,3,6.61,6.3,7.89,10.56,1,3.2,2.29,7.74-.6,9.45-2.44,1.43-5.62-2.29-7.91-4.48-6.19-6-9.09-13.81-13.94-20.54-1.53-2.11-2.37-4.86-5.81-6.1-.19,3.42,1,6.1,2.3,8.66,2.88,5.72,6,11.31,9,17,2.54,5,6.92,8.24,12,10.74,8.69,4.26,13.69,1.54,13.83-7.38,.19-12.66-8.23-20.55-18.51-27.14-7.09-4.52-14.46-8.7-18.09-17.77ZM626.07,96.29c-2.55-4-5.15-7.89-7.64-11.88-3-4.88-7.47-7.37-13.69-6.48s-9.6,4.66-11.18,9.92c-2.18,7.68-2.4,15.79-.63,23.58,.55,2.66,.26,6.28,4.74,6.49,4.91,.23,9.88,.21,14.06-3.53-1.61-.93-3.52-1.18-5.32-.7-5.74,1-7.49-1.43-7-6.23,.54-5,.72-10.08,1.47-15.08,.41-2.71,.4-6.09,4.23-7.07s6.61,1.14,9.08,3.61c3.19,3.18,6.29,6.47,11.88,7.37Zm662.98,565.58c-2.49-1.49-5-.4-7.48-.17-5.87,.62-11.81-.33-17.2-2.74-1.73-.79-3.49-2-3.23-4.13,.29-2.36,2.58-1.73,4.2-1.94,5.84-.77,11.69-1.44,17.52-2.23,1.41-.19,3.72,.47,3.81-1.5,.09-1.73-2.2-1.86-3.63-2.19-6.93-1.54-14.12-1.45-21,.27-4.37,1-8.53,2.52-9,7.27s2.47,8,6.59,10.08c8.25,4.22,16.87,4.33,25.5,.87,1.74-.67,3.58-1.46,3.94-3.58h-.02ZM140.13,51.09c-19.77,1.41-38.81,4.7-54.7,16.58,17.82-6.75,37.3-8.85,54.7-16.58Zm904,306.07c-.12-1.88,.62-4.51-2.53-5.1-2.8-.53-3.57,1.86-4.27,3.64-1.09,3.28-3.85,5.71-7.24,6.37-1.64,.37-2.54,.09-3-1.53-.3-1.09,1.16-2.88-.83-3.17s-3.09,1.42-4.07,2.69c-2.87,3.7-.86,8.19,4.18,9.63,7.32,2.2,15.04-1.96,17.23-9.28,.32-1.06,.51-2.15,.57-3.25h-.04Zm-162.7-85.89c-1-2.41-3.15-2-4.59-1.49-9.02,3.02-16.96,8.61-22.84,16.09-.72,.91-1.28,2.15-.53,3,1.15,1.26,2.56,.21,3.65-.4,7.99-4.4,15.57-9.51,22.64-15.27,.6-.6,1.16-1.25,1.67-1.93ZM310.06,668c7-.53,25.09-14.31,26.72-19.73,.24-.65,.2-1.38-.13-2-1-1.32-2.28-.23-3.06,.2-9.54,5.27-17.46,12-23.53,21.53ZM460.12,28.32c12.21-1.55,23.66-4.79,33.28-12-12.04,.59-23.63,4.77-33.28,12Zm859.75,560c-12.59,2.82-23.16,8.66-30.87,18.48,11.21-4.46,21.63-10.7,30.87-18.47h0ZM61.87,52.87c-8.87-2.28-28.1,6.58-29.95,13.73,10.6-3.6,20.43-7.66,29.95-13.73ZM842.87,238.62c-.41-3-2.41-2.83-4.37-2.14-3.25,1.16-6.16,3.11-8.46,5.68-2.13,2.35-6.56,5.18-3.82,8s6.26-.87,8.92-2.65c3.48-2.32,6.68-4.99,7.73-8.89Zm-646.27,55.47c-.48-2.06-2.08-2-3.3-1.61-6.08,1.85-11.65,5.11-16.23,9.52-.81,.81-1.54,1.81-.68,2.87,.69,.84,1.86,.51,2.75,.22,5.88-1.84,11.31-4.91,15.93-9,.58-.61,1.09-1.28,1.53-2Zm-55.69-19.27c-.46-1.25-1.85-1.88-3.1-1.42h-.02c-1.87,.41-3.67,1.08-5.34,2.01-2.79,1.85-8.33,3.44-6.09,6.93,1.73,2.68,6.13-.6,9-2.14,2.25-1.2,4.76-2.46,5.55-5.38Z"/></svg>