<svg id="Layer_1" data-name="Layer 1" xmlns="http://www.w3.org/2000/svg" viewBox="0 0 1369.07 710.39"><defs><style>.cls-1{fill:#b86f52;}.cls-2{fill:#f78764;}.cls-3{fill:#fcad95;}.cls-4{fill:#a8c8bc;}.cls-5{fill:#111;}</style></defs><path class="cls-1" d="M1229.93,510.26s-15.43,24.81,2.16,31.57,56.74-11.8,72.82,8.34-16.64,42.69,15.47,64.12c0,0-11,23.47-32.41,20.58s-24.53-10.11-38.2-34.38c0,0-21.22-11.61-51.94,3.09s-45.42,15.15-36.73-5.64-9.26-36.09,10.49-49.34S1229.93,510.26,1229.93,510.26Z"/><path class="cls-2" d="M785.23,50s-10.1,28.76,20.67,51.41S914.37,83.69,937.47,132s-1.19,49.86,9.92,69,154.75-80.07,177-51.88S1082,206,1089.79,231.52,1163.26,246,1170.26,271c0,0-33.66.21-16,28.57s15.23,43.61,5.56,45.67-33.35-20.11-36.84-30.26-24.49-19.73-32.52-29.51-11.52-27.06-29.63-16.35-33.34,23.87-36.22,43.23-9,42.85-21.81,31.58-12.15-43.8-24.9-60.9-13.27-31-32.31-34.78-44.82,1.23-73.91-19.64a13.46,13.46,0,0,0-6.17,6.7s-6.87-5.92-9.49-13.25c0,0-36.43,7.82-50-17.83s-26.41-16.91-50.16-25.71-26.55,3.58-36.89-9.25-17.59-15.79-23.46-3.95-13.74,2-18.37-4.93-20.21-10.29-37.81,2.11-20.22-14.38-19-18,5.24-9.45.92-15.65-2.62-7.89,3.4-11,20.22-9,25.93-15.78,11.88-6.63,25.16-5.64,31.44.49,41-10.58S718,74,713.35,73.54s.31-6.77,1.7-11.42,26.7.43,35.19-17.2C750.24,44.92,768.36,54.84,785.23,50Z"/><path class="cls-3" d="M680.17,202.67s-35.81,15.92-16.67,46.52,69.69,4.32,65.87,45.29-51.67,42.95-43.64,66.91,64.82,21.71,92,3.11,29,8.45,23.16,38.34-52.48,38.91-56.49,80.07,50.68,61.57,37.22,93.52-32,33.23-44.32,39-27.63,4.37-32.11-21.29-8.95-45.67-14.2-59.49-7.09-33.12-7.09-33.12S692.36,474.73,688,455s-18.52-26.81-16.82-44.56,6.33-48.9-28.71-43.55-61,10.94-80.72-17.19S544.2,313.33,548.52,284s9.43-38.53,13.12-49.48,19.7-33.24,36.9-39.45c0,0,18.54-5.17,29.05-9.88s30.77-10.72,42.6-2.92A21.84,21.84,0,0,1,680.17,202.67Z"/><path class="cls-4" d="M149.21,37.89s-32.69,14.9-9.08,33.21,62.3,24.06,33.08,67.43-29.22,67.76,0,93.16c0,0-19.2,11-17.28,29.9s20.71,24.41,27.76,22.87c0,0-1.4,16.65,21.23,14.37,0,0,20.17-3.64,17.17,18.77s5.14,44.74,59.42,21.43c0,0-14.68,21.37,11.21,43.23s56.41,15,48.91,52.25-23.89,31.95-5,53.95,48.53,32.5,22.19,67.84-56.38,101.5-30,143.6c0,0-35.94-12.4-30.94-101.87S277,510.44,250.41,490.14s-23.73-60.77-12.17-98.64l3.19-22.6s-16.78.67-24.75-17.8c0,0-8.64-5.49-11.57-18.32s-41.67-22.13-64.2-29.46-25.75-17.19-25.84-30.59S105.71,234.81,96.14,221,64,189.14,74.54,153.47s28.7-32.85,25.93-57.37c0,0-2.78-18.61-41.68-11.85s-35,3.37-35,3.37-13.27-23.33-1.7-38C22.06,49.6,65.47,18.11,149.21,37.89Z"/><path class="cls-5" d="M8.62,83l.9.9c3.28,4.46,8.11,5.89,13.71,6.16,15.38.74,30.11-3.09,45.1-5.1,24-3.22,31.8,5.5,23.67,26.55-4,10.34-11.33,18.93-17.72,28C64.21,153.79,61,168.88,67,185.29a154.55,154.55,0,0,0,23.92,43.2c10.64,13.41,17.16,27.87,18.17,44.84,1.33,22.14,9.78,30.51,33,36.42,8.7,2.21,17.54,4,26.2,6.33,18.5,5,34.1,13,40.33,31.42,1.85,5.46,6.7,6.68,13.44,4.45-4.45-2.14-9.47-3.48-9.78-9.11-.37-6.43-4.16-11.52-8.32-16.4-7.53-8.84-17.7-14.09-28.93-18-12.33-4.28-25.23-6.91-37.53-11.33-9.16-3.28-13.62-9.31-15.15-17.68a43.56,43.56,0,0,1-1-9.14c.53-16.83-6.32-31.23-16.84-44.59C95.21,213.84,87,201.35,81,187.72c-6.47-14.69-7-29,2.38-43,3-4.45,5.82-9,8.84-13.43,5.25-7.69,9.64-15.66,11.45-24.7,3.52-17.64-5.74-28-25.34-28a66.31,66.31,0,0,0-13.54,1.11C54.07,81.9,43.34,84.3,32.48,85.94c-7.38,1.12-15.27,2.91-21.85-2.66l-1.3-1c-.12-.51-.24-1-.35-1.54l-.4.27c0-.13,0-.25,0-.37l.46.12C7.43,81.31,8,82.15,8.62,83Zm149,35.26.28.13c3.67.08,6.87-1.5,10.21-2.52,23.54-7.16,47.4-13.44,70.57-21.59,4-1.41,8.06-2.8,12.49-6.65-2.94.39-4.1.46-5.22.69-18.09,3.68-35.71,8.84-53.32,14-11.78,3.47-23.88,6.18-34.93,11.47-4,0-7.08,2-10.43,3.5-2.53,1-5.35,1.63-7.52,3.08-5.1,3.42-12.12,3.84-16.17,8.78-4.26,2.37-8.44,4.82-10.55,9.37,3.47-3.44,9.41-3.63,12.07-8.09,10.13-4,20.88-6.62,30.74-11.24l-.15,0C156.61,119.34,157.7,119.74,157.63,118.25Zm1035.23,342c1.55,1.5,3.56,1.84,5.68,1.93,8.62,3.58,17.35,6.67,27.2,5-11.68-2.95-21.66-9.24-32.8-13.15a14.32,14.32,0,0,0-8.22-1.35c-6.39-1.61-13.66.22-20.86-4.51,27.29.11,52.24,6.73,79.1,9.07-3.42-3-6.38-3.53-9.11-4.37-14.19-4.37-28.88-6.95-43.44-9.89a99,99,0,0,0-32.36-.74c-2.23.29-6-.73-6.66,2.13-.71,3.06,1.22,5.91,3.87,8a24,24,0,0,0,9.32,4.49,62.8,62.8,0,0,0,16.35,1.86l2.53.16ZM841.75,476.17c-.55-4.45.57-9.07-1.7-13.34a41.15,41.15,0,0,0-2.26-14.19c.46-2.89-.53-5.6-1.2-8.35-2.05-12.7,2.54-23.31,12.19-32.32,5.93-5.54,11.89-11.05,17.78-16.62,9.13-8.64,16.58-18.34,21.56-29.48,3.47-7.77,5.81-15.73,3-24.19-2.3-6.91-7.24-9.91-15.15-9.15-5.52.53-10.7,2.28-16,3.63-9.9,2.54-12.81,1.25-14.38-7.81-1.64-9.43-6.73-16.56-14.23-22.86S817,288.6,813.51,279.63c-4.42-11.24-10.44-21.85-15.74-32.74-1.09-2.24-2.22-4.51-4.56-6.3-1,2.4.14,4.2.72,6,2.91,9,5.93,17.89,8.93,26.82,4.32,12.86,9.86,24.9,21.62,34a31.1,31.1,0,0,1,12.41,22c1.14,10.5,10.34,15.29,21.47,12.14,3.2-.9,6.29-2.12,9.47-3.06q15.74-4.68,12.3,10.12c-.32,1.41-.77,2.8-1.22,4.18a72.5,72.5,0,0,1-20,30.77c-8.39,7.85-17.26,15.31-24.6,24.06-9.12,10.89-9.92,23.08-6.93,35.88-.84,3.06.59,5.82,1.36,8.67q1.69,9.76,3.4,19.53l.42,5.75c-.13,2.71-.25,5.42-.38,8.13-.72,2.94-1.45,5.88-2.17,8.82-3.19,7.09-8.59,12.84-13.7,18.77-6.55,7.61-11.91,15.94-12.58,25.7-.81,12-6.92,21.62-15,30.4-5.26,5.76-11.32,10.91-17.21,16.52a78.23,78.23,0,0,0,18.09-12c9.42-8.1,17.56-17.19,19.45-29.4a47.76,47.76,0,0,1,13.54-26.93c6.77-6.94,13.81-13.9,16.65-23.27,1-3.14,2.57-6.17,1.92-9.59C841.4,481.72,841.57,479,841.75,476.17ZM441.37,494.76q1.39-3.45,2.77-6.9c2.29-7.91,7.31-15.36,4.48-24.29-2.42,8.22-7,15.43-11.29,22.75-2.6,3.32-3.7,7.17-4.62,11.08-1.69,19.67-7.23,38.11-20,54.47a73.42,73.42,0,0,0-10,16.5c-10,24-25.17,45.17-41.49,65.78-8,10.07-13.64,21-15.95,33.33-2.17,11.51-.59,19.06,5.52,25.15-.31-4.63-2.51-8.74-1.85-13.41,2-14.51,8.46-27.15,18.07-38.71,12.63-15.2,26.07-29.93,35.32-47.24,6-11.32,10.13-23.64,18-34,13.6-18,20.47-37.54,19.83-59.32l.54-2.39C440.92,496.63,441.15,495.69,441.37,494.76ZM1220.75,432c-2.26-1.61-2.62-3.88-2.55-6.27.13-4.25-.44-8.55,1-12.74a2.34,2.34,0,0,0-1.34-3.19c-1.57-.55-2.35.61-2.85,1.86-1.11,2.7-2.64,5.32-3.29,8.11-1.78,7.6.2,16.63,9,18.22a2.73,2.73,0,0,0,2.89.35c8.32.13,13.83-3.48,14.65-10.25.59-4.79.68-9.8-2.25-14.09-2-2.92-.94-3.79,2-5,5.54-2.23,11-4.7,14.44-9.69,3-2.47,4-4.88-.25-7.14-8.83-5-26.74-.2-31.6,8.85,2.51-.9,4.62-1.79,6.81-2.42,4.1-1.17,7.85-3.58,12.37-3.21,1.59.12,4.06-.58,4.51,1.43.35,1.55-1.76,2.18-3.15,2.78-2.67,1.15-5.36,2.25-8.1,3.26-12.75,4.74-12.83,5-4.37,15.4,5.38,6.64,3.58,11.5-5.13,13.87ZM820.51,137.71c-14.15,8.36-28.2,16.85-40,28.19,13.61-7.41,26.4-16,40.2-23.09,4-.07,6.33-3.07,9.55-4.5,12.32-5.26,23.85-11.79,35.32-18.41a3.34,3.34,0,0,0,3-1.8c47-27.82,93.33-56.73,142.32-81.85-7.23-.65-12.93,2.66-18.68,5.35C961.86,55.8,932.73,72,903.86,88.52c-12.29,7-24.13,14.75-36.16,22.14-3.83.75-6,3.81-9.24,5.46l-30.08,17.3A17.44,17.44,0,0,0,820.51,137.71Zm396.26-20.88c.42.86.24,2.5,2.18,1.38l.27,1.49c-2.52,3.64-1.14,7.83-2,11.72-3.34,7.78-6.77,15.53-10,23.36-1.2,2.95-2.74,6-1.63,9.32-1,3.56.08,6.69,2.34,9.58s4.76,5.68,6.82,8.7c1.38,2,3.21,4.27.6,6.82-4-2.32-5.94-6.12-8.41-9.49-3-4.13-5.46-8.73-10.51-11.29-6.79-5.2-15.26-5.32-23-.32-6.61,3.31-8.23,8.24-5.22,15.54,2.58,6.24,7.46,11,12.27,15.73,8.6,8.56,16.12,17.64,19.31,29.28,4.67,17.1-.89,27.41-18.93,33.63-6.82,2.34-13.88,4.09-20.66,6.49-15.88,5.62-20.27,18.6-10.66,31.37,2.89,3.84,6.21,7.42,9.44,11,6.45,7.19,7.48,15.18,4.49,23.84-2.78,8.05-5.75,9-12.89,3.79-4.46-3.23-8.37-7.13-13.87-9.06-4.83-1.69-9.1-.43-12.64,2.38-3.36,2.65-3.22,6.32-1.82,10a36.68,36.68,0,0,0,6.14,11c9,10.51,15.4,21.78,12.88,35.74-.1.55.14.71.43.56,4.21-12.64,1.06-23.9-6.92-34.37a46.38,46.38,0,0,1-6.61-12c-1.06-2.85-2-5.89,1.15-7.88,2.88-1.84,6.21-1,8.83.88,3.85,2.79,7.39,5.94,11.2,8.79,6.43,4.83,13.22,3.9,17.43-2.67,6.22-9.72,6.9-19.82.75-29.79-3-4.85-6.55-9.42-10-14-8.46-11.22-6.22-18.31,7.74-23.39,7.48-2.73,15.26-4.79,22.65-7.7,15.9-6.26,23.7-18.23,21.74-33.59-1.66-13.05-7.55-24.53-17.23-34.3-5.15-5.19-11.11-9.75-15-15.88-3.54-5.48-1.77-9.3,5-10.9,5.5-1.3,9.7.64,12.76,4.7,2.56,3.41,4.68,7.1,7.23,10.51,3,4.06,6.64,7.57,11.87,9.39,6.29,2.19,9.41.6,10.13-5.55s-.49-11.83-5.35-16.54-6.86-10-4.42-16.36q3.51-7.72,7-15.48c1.7-5.91,4.55-11.6,4.08-17.92,1.57-2.19.76-4.5.3-6.73-1.88-9.13-8.65-14.87-16.62-19.75-4.92-2.69-9.7-5.57-13.57-9.48-4.91-5-4.42-8.86,1.73-12.47,7.6-4.45,16.22-6.31,25-7.69,18.59-2.91,33.47,1.8,43.38,17.24,2.64,4.11,5.86,7.9,8.82,11.84-.49-3.76-2.08-7-3.75-10.15-7.61-14.5-19.28-23.94-37.59-25a80.52,80.52,0,0,0-24.61,2.29c-7.33,1.87-14.1,4.64-19.39,9.8-5,4.85-5.29,9.62-1.4,15.21,2.84,4.09,7,6.74,11.38,9.23C1205.51,105.14,1213.4,109.07,1216.77,116.83Zm-414,364.27a42.84,42.84,0,0,0-4.41,1.43c-26.16,11.78-49.93,26.7-70.59,45.56-5.43,5-11.71,9.4-15.21,16.12.78.19,1.28.46,1.49.34,2-1.18,4-2.37,5.82-3.68,22.22-15.48,43.26-32.39,67.43-45.47,5.92-3.2,11.39-7.09,17.06-10.66,1.93-1.11,4-2,4.74-4.44A5.61,5.61,0,0,0,802.75,481.1ZM992.18,269.35c1.9,2.28,3.07-.07,4.19-.75,8.38-5.08,16.61-10.34,25-15.47,24.19-14.9,47.06-31.54,71.32-46.28,18.67-11.34,37.48-22.52,56.16-33.86,1.62-1,3.64-1.77,3.5-4.55-59.64,25.28-110.67,62-160,100.87l.86.94c.11-.12.21-.25.31-.38ZM744.3,146.28c1.69-.88,3.45-1.66,5.06-2.65,26.17-16.09,52.23-32.33,78.51-48.27C858.11,77,889.48,60.3,919.08,41.09c3.13-2,6.86-3.64,8.91-7.56-4.25-.05-6.94,2-9.74,3.48-46.17,24.32-91.54,49.79-134.38,78.85-13.9,9.43-28.49,18.14-40.46,29.78-.08.42-.17.83-.26,1.24Zm405.76-16.83a55.67,55.67,0,0,0,13.77-8.87,23.32,23.32,0,0,0-13.63,4c-3.27-.37-5.33,2-7.79,3.18-41.12,20.27-81.53,41.6-119.19,67-19.63,13.25-38.7,27.35-61.66,35.85-.85.31-1.81.76-1.35,2,2.69.61,5-.61,7.33-1.48a263.65,263.65,0,0,0,44.85-21.69c26.22-16,52.41-32,79.45-46.9C1111.42,151.79,1130.66,140.5,1150.06,129.45ZM897.12,209c8-3.84,14.72-9.49,22.31-13.95,21.8-12.82,46.08-21.35,68.45-33.31,13.69-7.32,27.74-14.2,41.05-22.1,41.49-24.61,82.64-49.7,125.64-72.14,5.33-2.78,11-5.32,16.1-9.93-6.29-.09-10.71,2.43-15.12,4.47-32.39,15-63.08,32.64-93.86,50.12-35,19.85-69.17,40.8-105.35,58.85-19.71,9.82-38.76,20.74-56.1,33.91-1.38,1-3.87,1.73-3,4.22l-.77-.18.06.63Zm-24.83,19.43c-.24-.85-1.07-1.16-1.6-.64s.38,1,.83,1.39A116.47,116.47,0,0,0,911,249c9.72,2.78,20,1.79,30,2.06,11.6.31,17.07,4.51,19.26,14.54,1.1,5.06,3,9.66,7.22,13.3,5.6,4.86,8.82,10.91,11,17.62,3.11,9.66,6.35,19.28,9.87,28.81,3.16,8.54,6.85,17,13.28,23.94,8.35,9.05,16.5,7.81,21.39-3.06,3.87-8.6,5.06-17.72,5.81-26.9,1.55-19,10.58-34.14,28.06-44.68,9.82-5.92,17.34-4.71,25,3.35a55.74,55.74,0,0,1,7.43,10.38c5.23,8.89,11.38,16.78,22.88,19.83,5,1.33,6.23,5,4.73,9.57a29,29,0,0,1-4.39,7.62,21.41,21.41,0,0,0-4.51,12.09c-.54,20.26,11.26,36.34,21.09,53.15.93-2.44.24-4.58-.43-6.79-3.15-10.2-8.63-19.73-10.63-30.25-1.81-9.48-2.71-18.69,4.06-27.43,9.53-12.33,7.53-20-6.82-27.32a47.66,47.66,0,0,1-17.18-15.2c-4.57-6.27-8.7-12.91-15.28-17.76-5.32-3.92-11.15-5.88-18.08-4.18-23.07,5.64-35.6,20.81-43.09,40.22-3.83,9.93-2.81,20.68-4.92,30.93-.78,3.82-.73,9.78-4.67,10.23-4.2.48-6.41-5.09-8.23-8.77-4.45-9-7.24-18.58-10.65-27.95-4-10.92-7.28-22.19-16.25-30.85a27.85,27.85,0,0,1-8.25-14.06c-2.06-9-8.51-13.82-18-15.8-8-1.67-16.1-1.21-24.19-1.16-12.83.09-25-2.23-36.27-8C884.41,233.57,878.28,231.11,872.29,228.41ZM1284,90.31l.77-.11a15.82,15.82,0,0,0,0-3.23c-2.45-11.23-1.62-13.37,8.93-19.26,8.91-5,18.17-9.43,27-14.49,10.39-5.95,10.4-13.32.58-20.06-8.13-5.59-17.6-5.76-27.09-6-50.32-1.25-100.71,1.85-151-2.22-25.17-2-50.38-3.65-75.54-5.7-36.59-3-73.19-5.75-110-4.83-56.9,1.43-111.54,14-165.42,29.34-14.76,4.21-27.16,3.65-39.71-4C743.58,34.3,733.4,33,723,34A138.91,138.91,0,0,0,660.8,55.86c-7.34,4.72-13.62,10.48-16.85,18.39-1.91,4.69-.25,7,5.07,7.18,4,.16,8.07.11,11.86-1.85-2.27-2.22-5-1.37-7.49-1.53-4.41-.28-5.18-2-2.86-5.19a35.34,35.34,0,0,1,10.4-9.5c12.22-7.53,25.7-12.32,40-15.71,20-4.76,38.89-5.84,57,6,8.94,5.87,19.87,6.33,30.68,2.87,21.79-7,44.25-11.61,66.8-16,27-5.27,53.88-10.81,81.55-12.47,24.52-1.47,49-.37,73.4.92,26.22,1.39,52.44,2.56,78.65,4,30.34,1.68,60.61,4.57,91,4.82,38.72.32,77.32-3.22,116-3.25,6.57,0,13.09.13,19.13,2.74,8.07,3.47,8.51,7.55,1.1,12-7.1,4.22-14.65,7.8-21.71,12.06-11.25,6.78-20.48,13.7-11,27.63A5.52,5.52,0,0,1,1284,90.31ZM598.54,195.07a40.59,40.59,0,0,0-21.63,12.76c-16.5,18.53-24.13,40.64-30.61,63.16-5.62,19.55-7.66,39.39-2.37,59.32,7.84,29.53,32.27,51,71.71,44.82,10.65-1.66,21.26-4,32.2-3.78,14.68.32,22.48,8,21.61,21.44a39.77,39.77,0,0,1-1.34,9.09c-4,12.95-.87,24.77,7.38,35.34,10.28,13.19,12.27,27.07,7.71,42.54-4.66,15.83-6.53,32.13-.24,47.92,8,20,13.63,40.54,18.23,61.37,1.9,8.65,4.92,17.09,10.69,24.42,3.49,4.45,8.13,8.44,14.11,7.62,10-1.37,17.65-7.24,24.16-14.17.1-.1-.3-.6-.59-1.13-3.88,1.35-6.55,4.27-9.83,6.35-12.65,8-21.3,5.74-27.14-7.4-3.21-7.2-4.67-14.86-6.06-22.47C703,563.09,699.27,544,691,525.92c-4.61-10.1-4.45-20.72-2.11-31.33,1-4.59,2.07-9.17,3.3-13.71,4.44-16.47,3.58-31.93-8-46.33-8-10-10.9-21.46-7.5-33.86a52.88,52.88,0,0,0,1.21-8c2.18-18.71-8.51-29.57-29.11-29.83-12.12-.16-23.9,2.27-35.81,3.65-12.44,1.44-24.4.69-35.34-5.56-19.46-11.11-26.68-28.44-27.83-48.12-2-34.72,8.45-66.9,25.92-97.38,1.54-2.69,2.59-5.5,5.22-8C586.25,202.38,592.2,198.6,598.54,195.07ZM624,185.68c3.71,1.57,6.13-.14,8.67-.91,10-3.05,20.16-5.3,30.74-2.9,8.08,1.83,11.33,5.73,11.1,12.49-.33,9.71,3.44,14,14,15.81,6.25,1.08,12.59.72,18.9.61,19.35-.35,38.62.5,57.67,3.76,8.12,1.39,16,4.09,24.4,4,8.85-.13,15.61-3.78,19.06-11.4s0-13.72-6.07-18.83A36.36,36.36,0,0,0,784.22,180c-10.49-1.59-20.79-3.52-29.8-9.28-2.83-1.8-6.4-2.76-9.74-3.78-4.32-1.3-8.48-1.38-11.95,2.11-2.67,2.69-5.23,2.57-7.56-.61s-4.84-6.12-7.25-9.19c-2.19-2.79-4.38-5.57-7.6-7.45-6.39-3.72-15.58-.63-17.14,5.73-.79,3.19.73,8.46-2.89,9.05-4.21.69-5.66-4.74-8.29-7.51-.9-.94-1.45-2.14-2.27-3.15-4.77-5.88-11.17-8.39-19.08-7.31a32.17,32.17,0,0,0-16.37,7c-8,6.64-15.91,13.46-23.81,20.24-1.18,1-2.52,2-2.93,4.31,6.29-2.82,11.11-6.47,16.15-9.79,6.23-4.11,12.17-8.64,18.68-12.35,8.68-4.93,14.34-3.6,20.2,3.84,2.54,3.22,4.82,6.64,7.63,9.63,3.83,4.08,9,5.19,14.52,3.62,5.11-1.45,6.5-5.36,6.68-9.8.09-2.12-.41-4.89,2.45-5.49,3.15-.65,4.23,2.23,5.3,4.22a53,53,0,0,0,11.59,14.22c4.07,3.62,9.36,5.44,13.84,1.86,5.79-4.61,10.42-2.46,15.35.39a60.37,60.37,0,0,0,27.57,8.28,31.16,31.16,0,0,1,17.77,6.64c2.35,1.87,5.25,3.7,4.05,7.14-1.3,3.73-4.2,6-8.57,6.43a40.12,40.12,0,0,1-10.59-.54c-26.59-4.74-53.3-8-80.49-5a40.12,40.12,0,0,1-8.27-.08c-7.22-.72-9.9-3.4-10-10.07-.17-7.08-3.81-12-10.83-14.73-5.38-2.11-11-2.4-16.84-1.89C643.28,177.64,634.28,182.17,624,185.68ZM0,62.12c7-.76,10.63-4.37,14.79-6.81C46.4,36.75,80.24,30.4,117,39.22c12.93,3.1,25.94,4.18,39.26,2.17,17.12-2.58,34.27-5,51.75-4.37,21.07.8,42,4.19,63.18,2.85,14.53-.91,29-1.38,44.33.62-13.74,16.3-35.55,21-52.12,32.73,2.88.4,5.48.69,8.14-.34,7.07-2.75,14.34-5.08,21.3-8,13.47-5.71,26.66-11.84,34.8-24.07,4.08-6.15,4.12-6.24-3.69-8.31-13.87-3.69-28.08-3.65-42.3-3a296.64,296.64,0,0,1-48.41-1.91c-19.83-2.37-39.74-2.89-59.52.59-21.88,3.86-43.7,5.66-65.63.07A65,65,0,0,0,89.3,26.34C55.14,27.77,26.25,40.43,0,62.12ZM369.67,709.31c-7.09-3.09-13.15-3.47-19-4.66-18.9-3.82-33-13-40.58-29.78-8-17.79-8.32-36.49-8.34-55.27,0-24,3.2-47.9,1.55-71.9-1.12-16.39-6.3-31.21-21.11-41.84-5.57-4-11.44-7.67-17.14-11.53-25-16.93-34.75-39.81-30.89-67.63,2.43-17.48,7.43-34.64,8.21-52.36.14-3.11,1.35-6.38-1.42-9.55-2.62,19.92-8.6,38.81-12.86,58-6.34,28.63,1.56,53.62,25.5,73.58,6.82,5.69,14.6,10.43,21.86,15.69,9.72,7,15,16.32,17,27.5,3.81,21.4,1.94,42.8.68,64.22-1.22,20.91-2.1,41.8,4.15,62.27,6.13,20.06,18.17,35.5,41.05,41.78A70.62,70.62,0,0,0,369.67,709.31ZM252,244c2-6,2.07-11.83,2.14-17.49.1-7.26,3.5-12.39,9.89-16.15a81.06,81.06,0,0,0,24.14-22,163.84,163.84,0,0,1,69.57-54.56,198,198,0,0,0,45-25.71c3.85-3,4.46-5.56.69-8.83-2.86-2.48-5.49-5.19-8.35-7.67C381.81,80.08,367.26,70.35,349.8,64.7c-9.23-3-17.79-2.4-25.55,3.56-5.49,4.21-9.62,9.52-14.34,14.36s-9.06,9.52-15.14,12.77c-4.89,2.62-9.21,2.56-13.06-1.7-1.93-2.14-4.18-4-6.84-6.6,3.53,13.56,13.92,17.38,25.85,10.14,9.13-5.54,16.43-12.88,23.56-20.39,7.49-7.88,13.28-9.25,23.53-4.68,15.38,6.85,28.68,16.4,40.74,27.45,2.8,2.57,3.09,4.11-.47,6.49a211.91,211.91,0,0,1-35.38,18.48c-27.87,11.78-51,28.45-67.55,52.43-6.51,9.43-13.7,18.52-23.22,25.79C247.64,213.73,244.29,227.24,252,244Zm-45.63,30.42c9.52,1.84,9.69,2.32,4.09,9.62-3.05,4-6.71,7.6-8.74,12.18-3.26,7.38-2.61,8.16,5.84,7.37,8.79-.83,12.65,2.89,11.23,10.82-.57,3.2-1.35,6.38-1.73,9.59-1.62,13.9,4,27.43,22.86,29.63,10.06,1.18,19-1.27,27.11-5.64,20.47-11,38.69-8.11,55.78,5.84.59.47,1.22.91,1.86,1.33,10.92,7.12,20.14,16.34,31.77,22.49,7.18,3.79,11.38,8.58,11.87,16.09.55,8.45,5.69,14.19,12.92,19,11.54,7.64,25.27,10.81,38,16,9.56,3.9,18,8.9,22.69,18,1.14,2.21,2.26,4.64,4.77,6.5.82-2.44-.15-4.07-.74-5.74-4.33-12.36-14-20-26.41-25.43-9.77-4.26-20.11-7.35-29.44-12.54-8.23-4.57-13.13-10.7-13.28-19.66-.14-7.93-4.27-13.7-11.6-17.63a133.92,133.92,0,0,1-20.49-13.73c-11.27-9.06-22.93-17.58-36.85-23.2-11.95-4.81-23.65-4.84-35.38.41-3.71,1.67-7.42,3.33-11.18,4.91-6.32,2.67-12.8,4.42-20,3.8-8-.69-12.54-4.12-14.37-11.26-1.44-5.63.47-11.11.58-16.67.09-5.28.43-10.5-3.55-14.92-3.81-4.24-9-5.22-15.48-4.87,2.72-4.91,5.16-9.18,7.45-13.52,1.51-2.87,3.84-6.07.69-8.95S210.13,273.21,206.37,274.42ZM1298.92,483.1c-3.17,7.46-4.57,14.84-2.06,22.34,1.69,5,5.81,6.83,11.47,5.81,6.09-1.1,8.75-5.21,10.82-9.78,2-4.3,3.52-8.75,5.66-14.13a252.47,252.47,0,0,0,24.13,50.31c9,14.5,7.86,22.18-3.63,34.91-8.52,9.45-17.23,18.77-23.13,29.9a88.65,88.65,0,0,1-12.39,18.34c-14.18,15.59-34.71,15.73-45.6-2.13a144.88,144.88,0,0,0-9.52-13,66,66,0,0,0-4.9-5.16,194.72,194.72,0,0,0,11.29,24c7.62,14.23,23.26,19.59,39.31,13.55,10.94-4.11,18.44-11.84,24.07-20.79,8.78-13.95,18.35-27.26,30.13-39.25,13.85-14.09,14.37-29.5,4.1-45.3-8.83-13.57-15.23-28-20.5-42.94a97,97,0,0,0-8.73-17.67c-1.82-3-3.57-3.27-6.08-.44a42.05,42.05,0,0,0-8.95,16.87c-1,3.65-2,7.32-3.24,10.91-.92,2.61-2.38,5.58-5.83,5.24-2.89-.29-3.25-3.44-3.71-5.65C1300.53,493.77,1299.8,488.43,1298.92,483.1ZM480.3,4.13c0,.5,0,1,0,1.51C495,6.32,509.7,6.93,524.4,7.7c9.45.49,18.89,1.09,28.15,3.09,4,.87,4.22,2.69,2,5.32a35.43,35.43,0,0,1-12,8.65c-9.73,4.58-20.29,6.79-30.88,8.87-18.87,3.69-36.3,9.69-48.7,24.28a30.54,30.54,0,0,1-7.14,5.62c-7.05,4.41-12.43,2.2-14-5.55-.94-4.53.31-9,.55-13.45.56-10.63-4.37-18-14.89-22.2-1.89-.75-4.93-1-4.92-3.2,0-2.41,3-3,5.15-3.87a19.51,19.51,0,0,1,3.94-1.11c7.37-1.34,14.75-2.63,22.13-3.93-2.88-.59-5.93,0-8.58-.69a33.41,33.41,0,0,0-25.92,3.28c-9.53,5.35-9.51,8.4,0,13.48,1.19.64,2.3,1.41,3.51,2,7.2,3.53,10.47,9,9.7,16.44-.46,4.48-1.25,9-1.19,13.45.19,13.9,14.24,21.62,27.74,15.43a45.16,45.16,0,0,0,13.91-9.9,59.47,59.47,0,0,1,28.58-16.46c6.62-1.74,13.29-3.28,20-4.87C534.92,39.18,547.89,35,558.17,26c4.55-4,9.36-8.68,7.88-14.9-1.57-6.61-8.53-8-14.73-9.11C527.43-2.33,503.87,1.36,480.3,4.13ZM1274,483.84c-2.68-1.58-5.22-1-7.72-.89-10.61.56-18.33,6.17-25.36,12.57-16,14.57-32.92,27.89-53.84,36.41a87.91,87.91,0,0,0-13.23,7.08c-8,5-14.11,11.4-16.67,20.24a20.17,20.17,0,0,0-.57,10.7c3.22,12.34-.82,23.27-6.49,34.26-6.23,12.1-3,15.76,12.13,14.81.4,0,.79-.06,1.18-.12,18.08-2.61,32.82-11.54,47.3-20.93.15-.1,0-.63-.1-1.2-17.28,2.26-32,13-49.91,13-.2-.7-.34-.91-.28-1.05a20.53,20.53,0,0,1,1.2-2.39c6.75-10.58,10.17-21.68,7.33-34.08a19.91,19.91,0,0,1,2.17-14.73c4.31-7.42,11.69-11.52,19.56-15a144.18,144.18,0,0,0,50.9-37C1250.21,495.67,1257.93,484.66,1274,483.84ZM717.17,79.39c-6.77,5.37-12.65,11.4-22.75,11.9-8.72.43-17.54.79-26-.67-10-1.73-16.91,1.4-22.56,8.27a52.08,52.08,0,0,1-18.48,14c-7.55,3.57-15.18,7.33-20.63,14.06,4.18,1.75,8,3.16,11.14,5.69,4.07,3.28,3.86,5.76-.68,8.58-4.73,2.94-10,1.8-15,1.36-8.22-.71-14.41,2-18.28,8.47-4.49,7.46-4.78,15.18.48,22.56,3.91,5.48,10.6,7.66,20.53,6.51l-8.63-3.35c-8.82-3.42-12.16-9.87-9.46-18.29,2.37-7.41,9.3-11,18.5-9.81a48.77,48.77,0,0,0,9.41.57,13.57,13.57,0,0,0,12.37-8.68c2-4.51,2.2-9.39-1.81-12.57-5.47-4.35-1.9-5.42,2-6.86,11.13-4.11,21.35-9.26,27.85-19.09,2.21-3.33,5.87-3.87,9.91-3.21a98.18,98.18,0,0,0,23,.59c14.18-1,27.35-4,34.67-17,5.61-10,5.44-10.42-6.81-11.07a7.49,7.49,0,0,1-1.36-.42c1.47-4.63,3.19-9.22,4.36-13.92,1.54-6.18-1.24-8.82-8-8.12-8.2.84-13.19,4.89-15.36,12.89a114.87,114.87,0,0,1-6,17.48c-3.06,6.71-5.35,7.86-12.66,6.65,5.56,4.11,8.6,4.06,12.57-.71,5.22-6.28,7.87-13.63,9.63-21.26a12.12,12.12,0,0,1,9.3-9.54c3.33-.88,5.7,0,4.38,3.81-1.5,4.29-3.16,8.52-4.82,12.76-2.64,6.73-2.66,6.68,4.82,7.24C714.11,78.26,715.6,77.78,717.17,79.39ZM360.77,39.93a31.53,31.53,0,0,0-21.35,3.51c-7.78,4.46-7.82,6.94.48,10.64,16.86,7.53,34.25,7.05,51.73,1.84,3-.9,4-2.41,3.16-5.72-2.2-9-8.41-15.71-14.46-22.55-1.67-1.89-3.19-3.5-1.38-6.16,3.13-4.61.84-8.17-3.18-11.21a32.59,32.59,0,0,0-12-5.72C351,1.43,338,1.44,325.08,3.37c-4,.6-8.59,1.61-9.6,6.06-1.05,4.72,2.41,7.65,6.16,10.24,6.49,4.48,14,4.17,21.53,3.93,5.18-.16,11.17-1.76,12.17,7.1,2.75-7.73,1.13-11-5-12.09-4.42-.78-9-1-13.48-1.39-4.22-.36-8.06-1.27-11.06-6.07,14.78-.24,28.55-.27,41.67,5.06,2.63,1.07,2.22,2.86,1.47,4.95-1.63,4.55-.58,9.17,3.41,11.8,5.1,3.37,7.16,8.43,10.72,12.62,2.46,2.89,1.31,4.7-2.32,5.2a115.43,115.43,0,0,1-33.56-.66c-1.65-.25-4-.44-4.31-2.29-.41-2.29,2.07-2.85,3.79-3.45C351.32,42.78,356.06,41.4,360.77,39.93Zm727.53,13c-5.8,2.94-11.64,5.8-17.39,8.81C1011.3,93,952.34,125.3,891.78,155.07c-17.89,8.79-34.86,19-52.3,30.22a9.82,9.82,0,0,0,6.37-1.37c30-15.91,61.12-29.87,91.76-44.69q69.79-33.73,135.68-73.56C1079,62.23,1084.79,58.75,1088.3,52.88ZM854.94,219.06a10.32,10.32,0,0,0,0,1.68c2.67,14.24,14,21,27.19,26,6.9,2.65,13.86,5.13,20,9.16,11.62,7.62,13.33,16.79,4.85,27.28-9.71,12-24.06,18.43-37.76,25.46-12.35,6.34-19,3.87-24.44-8.1a36.19,36.19,0,0,1-1.57-3.49c-3.44-10.2-9.76-18.82-17.56-26.59a206,206,0,0,1-17.91-20.11c-.9-1.17-1.59-3.13-4.11-2.09a250.32,250.32,0,0,0,19.76,27.4,77.29,77.29,0,0,1,14.2,24.7A38.15,38.15,0,0,0,843.29,311c5.39,7.06,12,9.36,21.05,6.51a120.28,120.28,0,0,0,43.95-24.67,40.32,40.32,0,0,0,8.2-9.87c6.11-10.41,4.4-19.66-4.75-28-7.84-7.15-18-10.06-28-13.45-11.81-4-22.1-9.54-26.72-21.12C856.82,219.8,856.7,219,854.94,219.06ZM234.38,248.5a11.22,11.22,0,0,0,0-2.73c-4.63-17.41-24.55-29.05-43.78-25.55-18.77,3.41-30.14,14.88-37.78,29.86-8.33,16.36.77,33.36,20,38.19,6.37,1.6,14.11-.71,18-5.36.71-.85,1.72-1.73.84-2.85s-2-.61-3.18-.15c-2.47,1-4.69,2.73-7.65,2.51-12.61-1-22.36-15.42-17.63-26.15,3.48-7.89,9.69-13.91,16.38-19.54,13.55-11.39,44-10.55,52.39,9.72A2.49,2.49,0,0,0,234.38,248.5ZM1281.27,429.58c12.15-.49,12.07-.47,15.56,10.14a39.8,39.8,0,0,0,7.2,13.51c5.06,6,11.46,8.07,19.29,5.79a33.53,33.53,0,0,0,7.39-3.29c2.81-1.64,4.75-2.52,6.39,1.35,1.43,3.37,4.37,6,7.58,8.15,7.24,4.89,15,4.54,20.94-.85,4.59-4.15,4.85-10.32-.77-16.58-10.24-11.43-21.19-22.34-34.51-30.91-9.09-5.85-19.19-6.28-29.28-2.72-2.75,1-3.67,1-5.48-1-2.61-2.87-6.33-4.79-10.47-3.64s-5.21,5.08-6.25,8.54c-.3,1-1.23,2.79.92,3,1.27.13,2.27-.87,2.44-2.43.25-2.25.6-5.59,3.59-5.16,2.78.4,6.12,1.7,7.22,5.18.73,2.34.55,5,2.77,7.21,1.12-.79,2.21-1.5,3.23-2.3,8.24-6.47,14.88-7.44,24.29-2.54,15,7.83,24.71,21,36.63,31.88a4,4,0,0,1,.6,5.5,6.5,6.5,0,0,1-5.94,2.84,11,11,0,0,1-7.67-3.56,21.55,21.55,0,0,1-6.24-10.86c-.84-3.66-2.39-3.25-5-1.42a57.33,57.33,0,0,1-12,6.87c-6.63,2.65-11,1.48-15.57-3.64-3.81-4.3-5.71-9.39-7.92-14.39C1296.71,426.16,1290.67,424.53,1281.27,429.58ZM316.12,105.86c-3.46-1.43-6.67-.93-9.88-.36-20.3,3.56-40.2,8.63-60.1,13.68-26.54,6.72-52.86,14-78.53,23.27s-47.47,25.05-73.89,32.63c1.51.41,3.07.81,4.22.35C168.51,146.75,241.8,125.21,316.12,105.86Zm924.63,32.05c.11,6.18,3.18,11.4,5.81,16.77,4.72,9.61,3.85,13.86-4.1,21.34-2.2,2.06-4.55,4-6.52,6.27-4.45,5.09-8.6,10.37-8.48,17.36.1,6.36,3.67,9.6,10.74,9.47,5.63-.11,10.78-1.9,15.72-4.25,16.16-7.66,29.64-25.63,17.24-46.9-6.48-11.11-14.53-21-25.46-28.76-.87-.62-1.68-2.28-3.27-1,4.71,5.81,9.58,11.47,14,17.4,5.48,7.33,10,15.26,11.5,24.06,2.4,13.82-9,27.54-25.82,31.83-2.05.52-4.24,1.56-6.11-.2-2.07-2-.58-4,.15-6,2.29-6.21,7.16-10.72,12.26-15,7.09-5.93,9-12.89,5.69-21.05C1251,151.48,1245.64,144.84,1240.75,137.91ZM1227.84,296.5c-1,5-.1,7.29,4.4,12.86,5.17,6.4,5.24,9.31.47,15.85a32.11,32.11,0,0,0-5.9,14c-.8,5,1.81,7.35,7.06,5.72a7.84,7.84,0,0,1,8.92,2.32c3.1,3.36,5.28,7.19,4.85,11.81-.13,1.51-1.17,1.71-2.47,1.08-8.37-4-17.83-4.29-26.73-6.46s-9.27-3.57-2.86-9.35a54,54,0,0,0,4.81-4.76c7.47-8.61,8.25-17.88,2.15-25.91-2.16-2.83-5.2-4.89-8-7.17-3.57-2.9-6.71-6.08-1.82-11-5.67,2-7,4.77-4.31,8.79,1.93,2.88,4.64,5.34,7.08,7.92,6.48,6.86,7.13,13.22,1.6,20.59-2.66,3.55-5.9,6.74-8.92,10.07-9.12,10-8,13.13,6,16.82,10.92,2.88,22.72,2.93,32.76,8.6a2.8,2.8,0,0,0,3.69-.64c3.71-4.34,6-9.18,3.49-14.56-2.94-6.29-6.35-12.84-14.74-14.14-7.57-1.16-8.4-2.16-4.18-8.37A25.74,25.74,0,0,1,1238,327c5.51-5.66,5.08-10.69-.68-18.09C1234.13,304.83,1228.33,302.55,1227.84,296.5ZM840.6,521.94c-4.23,5.71-4.3,11.22-5.41,16.57-1.38,6.69,3,13.6,6.49,14.45,6.64,1.61,10.34-2.69,13.7-6.58a219.19,219.19,0,0,0,18.52-25c6.12-9.54,10.42-19.73,11.83-30.82.52-4,1-8.2-3.1-10.84-4.41-2.83-8.15.43-12,2a8.9,8.9,0,0,0-1.91,1.26c-8.36,6.12-13.52,14.82-21,21.67-.11.11.14.55.41,1.45,10.85-4.17,17.55-13.51,28.56-19.21-4,23.6-17.52,41.19-32.63,59.07C841,537.87,841.81,530.31,840.6,521.94ZM749.87,235.59c-5,.07-9,2.49-13,4.55-23.62,12-46.22,25.53-68.38,39.62-20.83,13.24-39.5,28.67-54.3,47.7-1.2,1.54-3.38,3-2.48,5.87,3.77-3.25,7.3-6.07,10.57-9.13a294,294,0,0,1,50.26-38.37Q701,268.9,729,251.34C736.44,246.72,744.12,242.3,749.87,235.59Zm102.42,120c-4.42-1-7.68.23-10.95,1.21-20,6-39.22,13.87-58.45,21.65-22.89,9.26-43.8,21.22-61.41,37.66a34.18,34.18,0,0,0-7,8.05c2.9.19,4.14-1.44,5.53-2.46a301.83,301.83,0,0,1,72.45-39c16.53-6.22,32.87-12.89,48.77-20.4C845,360.49,849,359,852.29,355.56Zm-165-131.31c-14.15.93-117.06,72.23-122.12,84.77C608.15,282.31,649.16,255,687.25,224.25ZM774,275.45a40.27,40.27,0,0,0-4.66.73,51.62,51.62,0,0,0-6,2.17c-22.75,10-44.81,21-65.6,34.12A132.63,132.63,0,0,0,664.34,342c-1.5,1.88-3.69,3.6-3.15,7.21,3.48-2.85,6.53-5.07,9.25-7.58,14-12.93,30.31-22.93,47.35-32.07,17.33-9.29,35.05-18,51.37-28.78C771,279.52,773.22,278.58,774,275.45Zm47.6,147.72c-4.73-1.44-7.11-.22-9.44.54-14.14,4.54-27.42,10.84-40.83,16.88a399.7,399.7,0,0,0-58.73,33.06,26,26,0,0,0-11.14,14.85A90,90,0,0,1,720.28,475c27.61-14.54,55.79-28.14,83.85-41.92C809.74,430.28,815,426.94,821.63,423.17ZM232.15,258.74c12.14,1.89,12.14,1.89,18.92,10.8.45.6.88,1.2,1.34,1.78,4,5,8.76,8.53,16.07,8.73,5.86.17,11.82.29,17.49,2.15,1.71.56,3.78,1.15,3.78,2.93s-2.26,2.46-3.89,2.66c-11.69,1.45-22.85,1-31.38-8-7-7.42-10.43-8.24-20.82-4.94,1.51-.42,2.06,1.38,4.13.69,4.64-1.56,7.86.79,10.22,4.36a57,57,0,0,0,3.57,5c7.32,8.83,29.06,13.77,40.06,9.06,4.43-1.9,7.16-5,7.06-9.68s-3.54-6.62-7.58-8a40.87,40.87,0,0,0-14.45-2.44c-9.43.32-16.83-2.65-22.33-9.82a30.65,30.65,0,0,0-6.86-5.89C242.82,254.84,238.11,255.83,232.15,258.74ZM273.57,176c-48.7,11.54-95.69,26.8-140.16,51.64,4,1,5.6-.29,7.3-.93,18.74-7.06,37.43-14.25,56.2-21.25,22-8.23,44.91-14.51,66.69-23.34C267.24,180.61,271.06,179.31,273.57,176Zm924.16,191.23c-14.6,9.57-28.62,19.82-38.83,33.38-6.73,8.94-3.24,19.42,6.75,24.57a49.27,49.27,0,0,0,20.2,5.5c9.59.49,16.55-4.05,18.24-12.1,2.91-14,.65-27.92-.37-41.9a5.83,5.83,0,0,0-.89,2.55c-1.53,12-3,24-4.57,35.95-.94,7.22-4.22,9.69-12.1,9.43-4.64-.16-8.76-1.89-12.92-3.48-12.1-4.6-14.18-10.28-7.48-20.6a46.93,46.93,0,0,1,4.87-6.09c6.61-7.2,14.3-13.4,21.8-19.78C1194.78,372.61,1197.61,370.87,1197.73,367.19Zm-928-226.68C220.75,153.13,175.37,173.1,131,197,138.57,196.81,259.58,148.12,269.72,140.51Zm44.67,432.85c10.31-2.29,98.66-59.11,101.95-65.58C403.66,508.34,321.42,561.25,314.39,573.36ZM702.75,377.84a46.67,46.67,0,0,0,11.75-7.9c12.54-10.69,27.25-18.36,42.38-25.39,15.64-7.26,31.63-13.88,46.83-21.92,2.08-1.11,4.6-2,5.41-4.59C787.54,315.93,709.46,359.33,702.75,377.84ZM310,516.55c18.79-4.88,99.74-55.58,103.24-64.36C399,456.35,319.22,505.9,310,516.55Zm497.28-457c-16.26,3.29-80.52,45.81-110,72.43C703.44,131.09,802.09,66.35,807.3,59.55ZM1111,378.36c-1,3.66.55,5.24,1.32,7,3.71,8.57,11.56,13.95,18.52,20,3.47,3,6.61,6.3,7.89,10.56,1,3.2,2.29,7.74-.6,9.45-2.44,1.43-5.62-2.29-7.91-4.48-6.19-6-9.09-13.81-13.94-20.54-1.53-2.11-2.37-4.86-5.81-6.1-.19,3.42,1,6.1,2.3,8.66,2.88,5.72,6,11.31,9,17,2.54,5,6.92,8.24,12,10.74,8.69,4.26,13.69,1.54,13.83-7.38.19-12.66-8.23-20.55-18.51-27.14C1122,391.61,1114.63,387.43,1111,378.36ZM375.77,427.43c-.52-.78-1-1.56-1.57-2.33-33.92,17.26-64.37,38.95-92.69,63.36Q330.34,460.11,375.77,427.43Zm-127,27.28c30.41-18.06,60.39-36.6,87.84-58.29C322.63,398.05,257.91,441,248.8,454.71ZM130.18,89.83c3.56.14,5.73-1.59,8-2.86C154.7,77.55,173,71.78,191.61,67.45c15.41-3.58,30.87-7,46.14-11,2.87-.76,5.82-1.53,8.36-3.82C222,49.73,143.48,74.87,130.18,89.83ZM1320.54,537c-12.57.83-71.89,42.29-73.27,50.75C1273.69,572.81,1298.68,556.85,1320.54,537ZM1102.32,254.18c3.23,1,5.84-.51,8.46-1.55,14.15-5.58,27.24-12.91,40-20.69,6.88-4.19,13.77-8.43,19.37-14.09,1.14-1.15,3-2.5,1.74-4.08s-2.75.57-4.22.7a5.11,5.11,0,0,0-1.58.69,497.77,497.77,0,0,0-59.23,34.36C1105.1,250.72,1102.68,251.59,1102.32,254.18ZM626.07,96.29c-2.55-4-5.15-7.89-7.64-11.88-3-4.88-7.47-7.37-13.69-6.48s-9.6,4.66-11.18,9.92a47.69,47.69,0,0,0-.63,23.58c.55,2.66.26,6.28,4.74,6.49,4.91.23,9.88.21,14.06-3.53a7,7,0,0,0-5.32-.7c-5.74,1-7.49-1.43-7-6.23.54-5,.72-10.08,1.47-15.08.41-2.71.4-6.09,4.23-7.07s6.61,1.14,9.08,3.61C617.38,92.1,620.48,95.39,626.07,96.29ZM684.53,117c-26.61,12.94-50.83,29.08-75,46.44C619.58,163.7,677.82,127.81,684.53,117ZM309.83,632.59a508.62,508.62,0,0,0,63.61-49.11C360.1,585.09,313.89,621,309.83,632.59Zm946-106c-12.64,1.13-58.16,35.4-59.64,44.89C1206.8,567.48,1253.49,532.34,1255.85,526.6Zm33.22,135.28c-2.49-1.49-5-.4-7.48-.17a33.58,33.58,0,0,1-17.2-2.74c-1.73-.79-3.49-2-3.23-4.13.29-2.36,2.58-1.73,4.2-1.94,5.84-.77,11.69-1.44,17.52-2.23,1.41-.19,3.72.47,3.81-1.5.09-1.73-2.2-1.86-3.63-2.19a45.71,45.71,0,0,0-21,.27c-4.37,1-8.53,2.52-9,7.27s2.47,8,6.59,10.08c8.25,4.22,16.87,4.33,25.5.87C1286.87,664.79,1288.71,664,1289.07,661.88ZM782,537.06c-16.6,3.25-54.19,37.6-53.8,49C745.06,568,765.73,554.54,782,537.06Zm-215.29-284c11.54-3.75,49.7-35.27,51.6-42.79C597.49,221.93,581.27,236.68,566.69,253.08ZM304.51,358.74c-13.48.58-47.05,22.26-50.83,32.76A500.29,500.29,0,0,0,304.51,358.74ZM140.13,51.09c-19.77,1.41-38.81,4.7-54.7,16.58C103.25,60.92,122.73,58.82,140.13,51.09Zm904,306.07c-.12-1.88.62-4.51-2.53-5.1-2.8-.53-3.57,1.86-4.27,3.64a9.55,9.55,0,0,1-7.24,6.37c-1.64.37-2.54.09-3-1.53-.3-1.09,1.16-2.88-.83-3.17s-3.09,1.42-4.07,2.69c-2.87,3.7-.86,8.19,4.18,9.63A13.84,13.84,0,0,0,1044.17,357.16ZM881.43,271.27c-1-2.41-3.15-2-4.59-1.49A48.79,48.79,0,0,0,854,285.87c-.72.91-1.28,2.15-.53,3,1.15,1.26,2.56.21,3.65-.4a151.63,151.63,0,0,0,22.64-15.27A17.5,17.5,0,0,0,881.43,271.27ZM310.06,668c7-.53,25.09-14.31,26.72-19.73a2.45,2.45,0,0,0-.13-2c-1-1.32-2.28-.23-3.06.2C324.05,651.74,316.13,658.47,310.06,668ZM460.12,28.32c12.21-1.55,23.66-4.79,33.28-12A60.45,60.45,0,0,0,460.12,28.32Zm859.75,560c-12.59,2.82-23.16,8.66-30.87,18.48A112.75,112.75,0,0,0,1319.87,588.33ZM61.87,52.87C53,50.59,33.77,59.45,31.92,66.6,42.52,63,52.35,58.94,61.87,52.87Zm781,185.75c-.41-3-2.41-2.83-4.37-2.14a20.67,20.67,0,0,0-8.46,5.68c-2.13,2.35-6.56,5.18-3.82,8s6.26-.87,8.92-2.65C838.62,245.19,841.82,242.52,842.87,238.62ZM196.6,294.09c-.48-2.06-2.08-2-3.3-1.61A40.36,40.36,0,0,0,177.07,302c-.81.81-1.54,1.81-.68,2.87.69.84,1.86.51,2.75.22a43.77,43.77,0,0,0,15.93-9A11.77,11.77,0,0,0,196.6,294.09Zm-55.69-19.27a2.41,2.41,0,0,0-3.12-1.41,19.57,19.57,0,0,0-5.34,2c-2.79,1.85-8.33,3.44-6.09,6.93,1.73,2.68,6.13-.6,9-2.14C137.61,279,140.12,277.74,140.91,274.82Z"/></svg>